<svg xmlns="http://www.w3.org/2000/svg" fill="none" viewBox="0 0 24 24" id="Disable--Streamline-Ultimate" height="24" width="24">
  <desc>
    Disable Streamline Icon: https://streamlinehq.com
  </desc>
  <path fill="#ff808c" d="M12 0.5c-2.27448 0 -4.49789 0.67446 -6.38905 1.9381C3.71978 3.70174 2.2458 5.49779 1.37539 7.59914 0.504983 9.70049 0.277244 12.0128 0.720974 14.2435c0.443726 2.2308 1.538996 4.2799 3.147306 5.8882 1.6083 1.6083 3.6574 2.7036 5.88819 3.1473 2.23073 0.4438 4.54303 0.216 6.64443 -0.6544 2.1013 -0.8704 3.8974 -2.3444 5.161 -4.2355C22.8255 16.4979 23.5 14.2745 23.5 12c0 -3.04999 -1.2116 -5.97506 -3.3683 -8.13173C17.9751 1.7116 15.05 0.5 12 0.5ZM4.33301 12c-0.00025 -1.3936 0.37938 -2.76082 1.09805 -3.95477 0.71867 -1.19394 1.7492 -2.16941 2.98078 -2.8215 1.23158 -0.65209 2.61756 -0.95613 4.00906 -0.87944 1.3914 0.07669 2.7357 0.53122 3.8881 1.31471L5.65901 16.308c-0.86633 -1.2694 -1.32855 -2.7711 -1.326 -4.308ZM12 19.667c-1.5371 0.0019 -3.03893 -0.4602 -4.30899 -1.326L18.341 7.691c0.7835 1.15245 1.238 2.4967 1.3147 3.8881 0.0767 1.3915 -0.2273 2.7775 -0.8794 4.0091 -0.6521 1.2315 -1.6276 2.2621 -2.8215 2.9807 -1.194 0.7187 -2.5612 1.0983 -3.9548 1.0981Z" stroke-width="1"></path>
  <path fill="#ffbfc5" d="M20.132 3.86799C17.9753 1.71125 15.0501 0.499603 12 0.499603c-3.05007 0 -5.97524 1.211647 -8.13198 3.368387S0.499634 8.9499 0.499634 12c0 3.0501 1.211646 5.9752 3.368386 8.132L20.132 3.86799Zm-8.132 0.465c1.5371 -0.00194 3.039 0.46022 4.309 1.326L5.65902 16.308c-0.78322 -1.1525 -1.23752 -2.4966 -1.31407 -3.8879 -0.07655 -1.3913 0.22755 -2.7771 0.87961 -4.00851 0.65205 -1.23141 1.6274 -2.26182 2.82119 -2.98044C9.23954 4.71253 10.6066 4.33287 12 4.33299Z" stroke-width="1"></path>
  <path stroke="#191919" stroke-linecap="round" stroke-linejoin="round" d="M12 0.5c-2.27448 0 -4.49789 0.67446 -6.38905 1.9381C3.71978 3.70174 2.2458 5.49779 1.37539 7.59914 0.504983 9.70049 0.277244 12.0128 0.720974 14.2435c0.443726 2.2308 1.538996 4.2799 3.147306 5.8882 1.6083 1.6083 3.6574 2.7036 5.88819 3.1473 2.23073 0.4438 4.54303 0.216 6.64443 -0.6544 2.1013 -0.8704 3.8974 -2.3444 5.161 -4.2355C22.8255 16.4979 23.5 14.2745 23.5 12c0 -3.04999 -1.2116 -5.97506 -3.3683 -8.13173C17.9751 1.7116 15.05 0.5 12 0.5v0ZM4.33301 12c-0.00025 -1.3936 0.37938 -2.76082 1.09805 -3.95477 0.71867 -1.19394 1.7492 -2.16941 2.98078 -2.8215 1.23158 -0.65209 2.61756 -0.95613 4.00906 -0.87944 1.3914 0.07669 2.7357 0.53122 3.8881 1.31471L5.65901 16.308c-0.86633 -1.2694 -1.32855 -2.7711 -1.326 -4.308v0ZM12 19.667c-1.5371 0.0019 -3.03893 -0.4602 -4.30899 -1.326L18.341 7.691c0.7835 1.15245 1.238 2.4967 1.3147 3.8881 0.0767 1.3915 -0.2273 2.7775 -0.8794 4.0091 -0.6521 1.2315 -1.6276 2.2621 -2.8215 2.9807 -1.194 0.7187 -2.5612 1.0983 -3.9548 1.0981v0Z" stroke-width="1"></path>
</svg>