<svg xmlns="http://www.w3.org/2000/svg" fill="none" viewBox="0 0 24 24" id="Email-Action-Unread--Streamline-Ultimate" height="24" width="24">
  <desc>
    Email Action Unread Streamline Icon: https://streamlinehq.com
  </desc>
  <path fill="#e3e3e3" d="M21.5 3.954h-19a2 2 0 0 0 -2 2v12a2 2 0 0 0 2 2h19a2 2 0 0 0 2 -2v-12a2 2 0 0 0 -2 -2Z" stroke-width="1"></path>
  <path fill="#ffffff" d="M2.5 3.953a2 2 0 0 0 -2 2v12a2 2 0 0 0 2 2h0.538l16 -16H2.5Z" stroke-width="1"></path>
  <path stroke="#191919" stroke-linecap="round" stroke-linejoin="round" d="M21.5 3.954h-19a2 2 0 0 0 -2 2v12a2 2 0 0 0 2 2h19a2 2 0 0 0 2 -2v-12a2 2 0 0 0 -2 -2Z" stroke-width="1"></path>
  <path stroke="#191919" stroke-linecap="round" stroke-linejoin="round" d="M22.911 4.536 12 13.454 1.089 4.536" stroke-width="1"></path>
</svg>