<?xml version="1.0" encoding="UTF-8"?>
<svg id="Network-1--Streamline-Ultimate" width="24" height="24" fill="none" version="1.1" viewBox="0 0 24 24" xmlns="http://www.w3.org/2000/svg"><desc>Network 1 Streamline Icon: https://streamlinehq.com</desc><path d="m23.382 11.968a11.389 11.389 0 01-11.383 11.393 11.511 11.511 0 01-11.32-11.603 11.099 11.099 0 0110.863-11.088c.1627-.011351.32288-.011351.49314-.011351a11.286 11.286 0 0111.346 11.31z" fill="#66e1ff" stroke-width="1.2612"/><path d="m11.543.67021a11.099 11.099 0 00-10.863 11.088 11.73 11.73 0 001.7821 6.2141 10.985 10.985 0 005.7147 1.6056 11.39 11.39 0 009.7267-17.307 11.38 11.38 0 00-5.8673-1.6119c-.17027 0-.33044 0-.49314.011351z" fill="#c2f3ff" stroke-width="1.2612"/><g stroke="#191919" stroke-linecap="round" stroke-linejoin="round" stroke-width="1.2612"><path d="m23.382 11.968a11.389 11.389 0 01-11.383 11.393 11.511 11.511 0 01-11.32-11.603 11.099 11.099 0 0110.863-11.088c.1627-.011351.32288-.011351.49314-.011351a11.286 11.286 0 0111.346 11.31z"/><path d="m11.543.67021c-5.9215 6.4147-5.9215 14.785 0 22.682"/><path d="m12.53.67021c5.9278 6.4147 5.9278 14.783 0 22.678"/><path d="m1.9437 17.055h20.243"/><path d="m2.5718 5.7038h18.919"/><path d="m.67991 12.01h22.702"/></g></svg>
