<svg xmlns="http://www.w3.org/2000/svg" fill="none" viewBox="0 0 24 24" id="Login-Key--Streamline-Ultimate" height="24" width="24">
  <desc>
    Login Key Streamline Icon: https://streamlinehq.com
  </desc>
  <path fill="#ffef5e" d="m20.5 0.5 -9.782 9.784c-1.48366 -0.76771 -3.19294 -0.97954 -4.81909 -0.59721 -1.62616 0.38231 -3.06198 1.33361 -4.04811 2.68201C0.864671 13.7171 0.393258 15.3737 0.521712 17.0393c0.128455 1.6655 0.848308 3.2302 2.029528 4.4114 1.18122 1.1813 2.74592 1.9011 4.41148 2.0296 1.66555 0.1284 3.32208 -0.343 4.67048 -1.3291 1.3484 -0.9861 2.2997 -2.422 2.682 -4.0481 0.3823 -1.6262 0.1705 -3.3355 -0.5972 -4.8191L17 10h1.5V8.5L19 8h1.5V6.5L21 6h1.5V4.5l1 -1v-3h-3ZM5.49998 20c-0.29667 0 -0.58668 -0.088 -0.83336 -0.2528 -0.24667 -0.1648 -0.43893 -0.3991 -0.55246 -0.6732 -0.11353 -0.2741 -0.14324 -0.5757 -0.08536 -0.8666 0.05788 -0.291 0.20074 -0.5583 0.41052 -0.7681 0.20978 -0.2097 0.47705 -0.3526 0.76802 -0.4105 0.29097 -0.0579 0.59257 -0.0281 0.86666 0.0854 0.27409 0.1135 0.50836 0.3058 0.67318 0.5524 0.16482 0.2467 0.2528 0.5367 0.2528 0.8334 0 0.3978 -0.15804 0.7794 -0.43934 1.0607C6.27933 19.842 5.8978 20 5.49998 20Z" stroke-width="1"></path>
  <path fill="#fff9bf" d="m2.55103 21.449 1.888 -1.888c-0.13933 -0.1393 -0.24987 -0.3046 -0.3253 -0.4866 -0.07543 -0.182 -0.11428 -0.377 -0.11433 -0.574 -0.00009 -0.3979 0.15787 -0.7795 0.43913 -1.0609s0.66279 -0.4395 1.06065 -0.4396c0.39786 -0.0001 0.77946 0.1578 1.06085 0.4391L23.5 0.5h-3l-9.782 9.784c-1.4834 -0.76731 -3.19229 -0.97894 -4.81809 -0.59669 -1.6258 0.38229 -3.06135 1.33319 -4.04746 2.68109 -0.986112 1.348 -1.457787 3.004 -1.329862 4.6693 0.127925 1.6652 0.847022 3.2298 2.027442 4.4113h0.001Z" stroke-width="1"></path>
  <path stroke="#191919" stroke-linecap="round" stroke-linejoin="round" d="m20.5 0.5 -9.782 9.784c-1.48366 -0.76771 -3.19294 -0.97954 -4.81909 -0.59721 -1.62616 0.38231 -3.06198 1.33361 -4.04811 2.68201C0.864671 13.7171 0.393258 15.3737 0.521712 17.0393c0.128455 1.6655 0.848308 3.2302 2.029528 4.4114 1.18122 1.1813 2.74592 1.9011 4.41148 2.0296 1.66555 0.1284 3.32208 -0.343 4.67048 -1.3291 1.3484 -0.9861 2.2997 -2.422 2.682 -4.0481 0.3823 -1.6262 0.1705 -3.3355 -0.5972 -4.8191L17 10h1.5V8.5L19 8h1.5V6.5L21 6h1.5V4.5l1 -1v-3h-3ZM5.49998 20c-0.29667 0 -0.58668 -0.088 -0.83336 -0.2528 -0.24667 -0.1648 -0.43893 -0.3991 -0.55246 -0.6732 -0.11353 -0.2741 -0.14324 -0.5757 -0.08536 -0.8666 0.05788 -0.291 0.20074 -0.5583 0.41052 -0.7681 0.20978 -0.2097 0.47705 -0.3526 0.76802 -0.4105 0.29097 -0.0579 0.59257 -0.0281 0.86666 0.0854 0.27409 0.1135 0.50836 0.3058 0.67318 0.5524 0.16482 0.2467 0.2528 0.5367 0.2528 0.8334 0 0.3978 -0.15804 0.7794 -0.43934 1.0607C6.27933 19.842 5.8978 20 5.49998 20Z" stroke-width="1"></path>
</svg>