<svg xmlns="http://www.w3.org/2000/svg" fill="none" viewBox="0 0 24 24" id="Login-Keys--Streamline-Ultimate" height="24" width="24">
  <desc>
    Login Keys Streamline Icon: https://streamlinehq.com
  </desc>
  <path fill="#ffdda1" d="M9.5 15.013c0.8245 0.4733 1.7575 0.7251 2.7082 0.7309 0.9506 0.0058 1.8866 -0.2347 2.7168 -0.6979L16 16v1.5h1.5l0.5 0.525V19.5h1.317l1.062 1H22.5v-2.121l-5.454 -5.454c0.4953 -0.8889 0.7343 -1.8977 0.6904 -2.9143 -0.0438 -1.01653 -0.3688 -2.00102 -0.9388 -2.8439 -0.5701 -0.84288 -1.3627 -1.51112 -2.2898 -1.93038 -0.9272 -0.41926 -1.9524 -0.57311 -2.9618 -0.44443L9.5 15.013Z" stroke-width="1"></path>
  <path fill="#ffbc44" d="M15 9.00001c0.0022 -1.45432 -0.4506 -2.87289 -1.295 -4.057 -0.7043 -0.1927 -1.4398 -0.24402 -2.164 -0.151L9.5 15.013c0.35072 0.2017 0.7226 0.364 1.109 0.484 1.2968 -0.5209 2.4081 -1.418 3.1907 -2.5759 0.7825 -1.1579 1.2006 -2.5235 1.2003 -3.92109Z" stroke-width="1"></path>
  <path stroke="#191919" stroke-linecap="round" stroke-linejoin="round" d="M9.5 15.013c0.8245 0.4733 1.7575 0.7251 2.7082 0.7309 0.9506 0.0058 1.8866 -0.2347 2.7168 -0.6979L16 16v1.5h1.5l0.5 0.525V19.5h1.317l1.062 1H22.5v-2.121l-5.454 -5.454c0.4953 -0.8889 0.7343 -1.8977 0.6904 -2.9143 -0.0438 -1.01653 -0.3688 -2.00102 -0.9388 -2.8439 -0.5701 -0.84288 -1.3627 -1.51112 -2.2898 -1.93038 -0.9272 -0.41926 -1.9524 -0.57311 -2.9618 -0.44443" stroke-width="1"></path>
  <path fill="#ffef5e" d="M8.00003 3.5c-1.32536 0.00295 -2.60508 0.4844 -3.60374 1.35576 -0.99866 0.87136 -1.64907 2.07404 -1.8316 3.38677 -0.18253 1.31274 0.11511 2.64727 0.83817 3.75797 0.72305 1.1108 1.82289 1.9231 3.09717 2.2875V15.5l-1 1 1 1v1l-1 1 1 1V22l1.5 1.5 1.5 -1.5v-7.712c1.27427 -0.3644 2.37407 -1.1767 3.09717 -2.2875 0.7231 -1.1107 1.0207 -2.44523 0.8382 -3.75797 -0.1826 -1.31273 -0.833 -2.51541 -1.8316 -3.38677C10.6051 3.9844 9.32539 3.50295 8.00003 3.5Zm0 6c-0.39557 0 -0.78224 -0.1173 -1.11114 -0.33706 -0.3289 -0.21976 -0.58525 -0.53212 -0.73662 -0.89757 -0.15138 -0.36546 -0.19098 -0.76759 -0.11381 -1.15555 0.07717 -0.38796 0.26765 -0.74433 0.54735 -1.02403 0.27971 -0.27971 0.63607 -0.47019 1.02404 -0.54736 0.38796 -0.07717 0.79009 -0.03756 1.15554 0.11381 0.36546 0.15138 0.67781 0.40772 0.89758 0.73662C9.88273 6.71776 10 7.10444 10 7.5c0 0.53043 -0.21069 1.03914 -0.58576 1.41421 -0.37507 0.37508 -0.88378 0.58579 -1.41421 0.58579Z" stroke-width="1"></path>
  <path fill="#fff9bf" d="M8.00003 23.5v-14c-0.53044 0 -1.03914 -0.21071 -1.41422 -0.58579 -0.37507 -0.37507 -0.58578 -0.88378 -0.58578 -1.41421s0.21071 -1.03914 0.58578 -1.41421C6.96089 5.71071 7.46959 5.5 8.00003 5.5v-2c-1.32536 0.00295 -2.60508 0.4844 -3.60374 1.35576 -0.99866 0.87136 -1.64907 2.07404 -1.8316 3.38677 -0.18253 1.31274 0.11511 2.64727 0.83817 3.75797 0.72305 1.1108 1.82289 1.9231 3.09717 2.2875V15.5l-1 1 1 1v1l-1 1 1 1V22l1.5 1.5Z" stroke-width="1"></path>
  <path stroke="#191919" stroke-linecap="round" stroke-linejoin="round" d="M8.00003 3.5c-1.32536 0.00295 -2.60508 0.4844 -3.60374 1.35576 -0.99866 0.87136 -1.64907 2.07404 -1.8316 3.38677 -0.18253 1.31274 0.11511 2.64727 0.83817 3.75797 0.72305 1.1108 1.82289 1.9231 3.09717 2.2875V15.5l-1 1 1 1v1l-1 1 1 1V22l1.5 1.5 1.5 -1.5v-7.712c1.27427 -0.3644 2.37407 -1.1767 3.09717 -2.2875 0.7231 -1.1107 1.0207 -2.44523 0.8382 -3.75797 -0.1826 -1.31273 -0.833 -2.51541 -1.8316 -3.38677C10.6051 3.9844 9.32539 3.50295 8.00003 3.5v0Zm0 6c-0.39557 0 -0.78224 -0.1173 -1.11114 -0.33706 -0.3289 -0.21976 -0.58525 -0.53212 -0.73662 -0.89757 -0.15138 -0.36546 -0.19098 -0.76759 -0.11381 -1.15555 0.07717 -0.38796 0.26765 -0.74433 0.54735 -1.02403 0.27971 -0.27971 0.63607 -0.47019 1.02404 -0.54736 0.38796 -0.07717 0.79009 -0.03756 1.15554 0.11381 0.36546 0.15138 0.67781 0.40772 0.89758 0.73662C9.88273 6.71776 10 7.10444 10 7.5c0 0.53043 -0.21069 1.03914 -0.58576 1.41421 -0.37507 0.37508 -0.88378 0.58579 -1.41421 0.58579Z" stroke-width="1"></path>
  <path stroke="#191919" stroke-linecap="round" stroke-linejoin="round" d="M8 7V2.5c0 -0.53043 0.21071 -1.03914 0.58579 -1.41421C8.96086 0.710714 9.46957 0.5 10 0.5c0.5304 0 1.0391 0.210714 1.4142 0.58579C11.7893 1.46086 12 1.96957 12 2.5v2.253" stroke-width="1"></path>
</svg>