<?xml version="1.0" encoding="UTF-8"?>
<svg id="Login-3--Streamline-Ultimate" width="24" height="24" fill="none" version="1.1" viewBox="0 0 24 24"
     xmlns="http://www.w3.org/2000/svg">
    <desc>Login 3 Streamline Icon: https://streamlinehq.com</desc>

    <style>
        /* Couleurs par défaut (Mode Clair) */
        .bg-wall { fill: #e3e3e3; stroke: none; }
        .lines { stroke: #191919; }
        .door-stroke { stroke: #191919; }
        .handle { stroke: #191919; fill: #808080; }

        /* Couleurs pour le Mode Sombre */
        @media (prefers-color-scheme: dark) {
            .bg-wall { fill: #333333; stroke: #808080; }
            .lines { stroke: #ffffff; }
            .door-stroke { stroke: #ffffff; }
            .handle { stroke: #ffffff; }
        }
    </style>

    <!-- Zone derrière la porte (mur intérieur) -->
    <path class="bg-wall" d="m6.5 5.5v-2.5c0-.13261.0527-.25979.1464-.35355.0938-.09377.221-.14645.3536-.14645h7.5v19h-7.5c-.1326 0-.2598-.0527-.3536-.1464-.0937-.0938-.1464-.221-.1464-.3536v-2.5"/>

    <!-- Flèche et encadrement -->
    <g class="lines" stroke-linecap="round" stroke-linejoin="round">
        <path d="m6.5 5.5v-2.5c0-.13261.0527-.25979.1464-.35355.0938-.09377.221-.14645.3536-.14645h7.5v19h-7.5c-.1326 0-.2598-.0527-.3536-.1464-.0937-.0938-.1464-.221-.1464-.3536v-2.5"/>
        <path d="m12.5 12h-12"/>
        <path d="m8.5 8 4 4-4 4"/>
    </g>

    <!-- Structure de la porte (Les couleurs marron/beige restent identiques dans les deux modes) -->
    <path d="m23.5 21.222c-4.5e-5.1138-.03892.2242-.11019.3129s-.17069.1505-.28181.1751l-8 1.778c-.07305.0161-.1488.0157-.22166-.0013-.07285-.017-.14097-.0501-.19931-.097-.05835-.0468-.10544-.1061-.13781-.1736-.03237-.0674-.04919-.1413-.04922-.2161v-22c3e-5-.074816.01685-.14867.04922-.21612s.07946-.12678.13781-.17361c.05834-.046831.12646-.079972.19931-.096978.07286-.017007.14861-.017446.22166-.001286l8 1.778c.11112.02458.21054.08634.28181.17507s.11014.19912.11019.31293z"
          fill="#c77f67"/>
    <path d="m19.5 1.488 3.608.8c.11146.02465.21113.08671.28244.17585s.10997.19999.10956.31415v18.444c-4.5e-5.1138-.03892.2242-.11019.3129-.07127.0888-.17069.1505-.28181.1751l-3.608.8z"
          fill="#e3bfb3"/>

    <!-- Contour extérieur de la porte -->
    <path class="door-stroke" d="m23.5 21.222c-4.5e-5.1138-.03892.2242-.11019.3129s-.17069.1505-.28181.1751l-8 1.778c-.07305.0161-.1488.0157-.22166-.0013-.07285-.017-.14097-.0501-.19931-.097-.05835-.0468-.10544-.1061-.13781-.1736-.03237-.0674-.04919-.1413-.04922-.2161v-22c3e-5-.074816.01685-.14867.04922-.21612s.07946-.12678.13781-.17361c.05834-.046831.12646-.079972.19931-.096978.07286-.017007.14861-.017446.22166-.001286l8 1.778c.11112.02458.21054.08634.28181.17507s.11014.19912.11019.31293z"
          stroke-linecap="round" stroke-linejoin="round"/>

    <!-- Poignée de la porte -->
    <path class="handle" d="m18 13.5c-.82843 0-1.5-.6716-1.5-1.5s.67157-1.5 1.5-1.5 1.5.6716 1.5 1.5-.67157 1.5-1.5 1.5z"
          stroke-linecap="round" stroke-linejoin="round"/>
</svg>
