<svg xmlns="http://www.w3.org/2000/svg" fill="none" viewBox="0 0 24 24" id="Shipment-Package--Streamline-Ultimate" height="24" width="24">
  <desc>
    Shipment Package Streamline Icon: https://streamlinehq.com
  </desc>
  <path fill="#c77f67" d="M23.5 6.153v11.7c-0.0004 0.1924 -0.0563 0.3805 -0.1609 0.5419 -0.1047 0.1614 -0.2537 0.2892 -0.4291 0.3681l-10.01 4.56c-0.1254 0.0582 -0.2618 0.0889 -0.4 0.09V10.5l10.82 -4.92c0.1164 0.16847 0.1792 0.36822 0.18 0.573Z" stroke-width="1" />
  <path fill="#ffdda1" d="M23.32 5.58 12.5 10.5 0.679993 5.58c0.103461 -0.1546 0.249277 -0.27611 0.419997 -0.35L11.6 0.670004c0.1263 -0.054424 0.2624 -0.082495 0.4 -0.082495 0.1375 0 0.2737 0.028071 0.4 0.082495L22.9 5.23c0.169 0.07666 0.3141 0.1976 0.42 0.35Z" stroke-width="1" />
  <path fill="#ffbc44" d="M12.5 10.5v12.91c-0.1376 0.0035 -0.2743 -0.0239 -0.4 -0.08L1.11 18.75c-0.181292 -0.0758 -0.336025 -0.2037 -0.444612 -0.3674 -0.108586 -0.1638 -0.166143 -0.3561 -0.165385 -0.5526V6.15c-0.003327 -0.20448 0.059841 -0.40451 0.18 -0.57L12.5 10.5Z" stroke-width="1" />
  <path stroke="#191919" stroke-linecap="round" stroke-linejoin="round" d="m7.185 2.59399 11.1 5.278" stroke-width="1" />
  <path fill="#ffffff" d="M9.5 12.95c-0.00005 -0.0972 -0.02846 -0.1924 -0.08174 -0.2737 -0.05328 -0.0814 -0.12913 -0.1454 -0.21826 -0.1843l-5 -2.192c-0.07615 -0.0332 -0.15938 -0.047 -0.24217 -0.04 -0.08278 0.007 -0.16252 0.0346 -0.232 0.0801 -0.06948 0.0456 -0.12651 0.1077 -0.16594 0.1809 -0.03943 0.0731 -0.06001 0.1549 -0.05989 0.238v3.908c0.00005 0.0972 0.02846 0.1924 0.08174 0.2737 0.05329 0.0814 0.12913 0.1454 0.21826 0.1843l5 2.188c0.07607 0.0332 0.15921 0.0469 0.24192 0.04 0.0827 -0.007 0.16238 -0.0344 0.23183 -0.0799 0.06946 -0.0454 0.12651 -0.1074 0.16601 -0.1804 0.03949 -0.073 0.0602 -0.1547 0.06024 -0.2377V12.95Z" stroke-width="1" />
  <path stroke="#191919" stroke-linecap="round" stroke-linejoin="round" d="M23.5 6.153v11.7c-0.0004 0.1924 -0.0563 0.3805 -0.1609 0.5419 -0.1047 0.1614 -0.2537 0.2892 -0.4291 0.3681l-10.01 4.56c-0.1254 0.0582 -0.2618 0.0889 -0.4 0.09V10.5l10.82 -4.92c0.1164 0.16847 0.1792 0.36822 0.18 0.573v0Z" stroke-width="1" />
  <path stroke="#191919" stroke-linecap="round" stroke-linejoin="round" d="M23.32 5.58 12.5 10.5 0.679993 5.58c0.103461 -0.1546 0.249277 -0.27611 0.419997 -0.35L11.6 0.670004c0.1263 -0.054424 0.2624 -0.082495 0.4 -0.082495 0.1375 0 0.2737 0.028071 0.4 0.082495L22.9 5.23c0.169 0.07666 0.3141 0.1976 0.42 0.35v0Z" stroke-width="1" />
  <path stroke="#191919" stroke-linecap="round" stroke-linejoin="round" d="M12.5 10.5v12.91c-0.1376 0.0035 -0.2743 -0.0239 -0.4 -0.08L1.11 18.75c-0.181292 -0.0758 -0.336025 -0.2037 -0.444612 -0.3674 -0.108586 -0.1638 -0.166143 -0.3561 -0.165385 -0.5526V6.15c-0.003327 -0.20448 0.059841 -0.40451 0.18 -0.57L12.5 10.5Z" stroke-width="1" />
  <path stroke="#191919" stroke-linecap="round" stroke-linejoin="round" d="M9.5 12.95c-0.00005 -0.0972 -0.02846 -0.1924 -0.08174 -0.2737 -0.05328 -0.0814 -0.12913 -0.1454 -0.21826 -0.1843l-5 -2.192c-0.07615 -0.0332 -0.15938 -0.047 -0.24217 -0.04 -0.08278 0.007 -0.16252 0.0346 -0.232 0.0801 -0.06948 0.0456 -0.12651 0.1077 -0.16594 0.1809 -0.03943 0.0731 -0.06001 0.1549 -0.05989 0.238v3.908c0.00005 0.0972 0.02846 0.1924 0.08174 0.2737 0.05329 0.0814 0.12913 0.1454 0.21826 0.1843l5 2.188c0.07607 0.0332 0.15921 0.0469 0.24192 0.04 0.0827 -0.007 0.16238 -0.0344 0.23183 -0.0799 0.06946 -0.0454 0.12651 -0.1074 0.16601 -0.1804 0.03949 -0.073 0.0602 -0.1547 0.06024 -0.2377V12.95Z" stroke-width="1" />
</svg>