<svg xmlns="http://www.w3.org/2000/svg" fill="none" viewBox="0 0 24 24" id="Logout-2--Streamline-Ultimate" height="24" width="24">
  <desc>
    Logout 2 Streamline Icon: https://streamlinehq.com
  </desc>
  <path fill="#e3e3e3" d="M17.5 5.5V3c0 -0.13261 -0.0527 -0.25979 -0.1464 -0.35355C17.2598 2.55268 17.1326 2.5 17 2.5H9.5v19H17c0.1326 0 0.2598 -0.0527 0.3536 -0.1464 0.0937 -0.0938 0.1464 -0.221 0.1464 -0.3536v-2.5" stroke-width="1"></path>
  <path stroke="#191919" stroke-linecap="round" stroke-linejoin="round" d="M17.5 5.5V3c0 -0.13261 -0.0527 -0.25979 -0.1464 -0.35355C17.2598 2.55268 17.1326 2.5 17 2.5H9.5v19H17c0.1326 0 0.2598 -0.0527 0.3536 -0.1464 0.0937 -0.0938 0.1464 -0.221 0.1464 -0.3536v-2.5" stroke-width="1"></path>
  <path stroke="#191919" stroke-linecap="round" stroke-linejoin="round" d="M23.5 12h-12" stroke-width="1"></path>
  <path stroke="#191919" stroke-linecap="round" stroke-linejoin="round" d="m19.5 16 4 -4 -4 -4" stroke-width="1"></path>
  <path fill="#c77f67" d="M0.5 21.222c0.000045 0.1138 0.038916 0.2242 0.11019 0.3129s0.170686 0.1505 0.28181 0.1751l8 1.778c0.07305 0.0161 0.1488 0.0157 0.22166 -0.0013 0.07285 -0.017 0.14097 -0.0501 0.19931 -0.097 0.05835 -0.0468 0.10544 -0.1061 0.13781 -0.1736 0.03237 -0.0674 0.04919 -0.1413 0.04922 -0.2161V0.999986C9.49997 0.92517 9.48315 0.851313 9.45078 0.783861 9.41841 0.716409 9.37132 0.657081 9.31297 0.61025 9.25463 0.563419 9.18651 0.530278 9.11366 0.513272 9.0408 0.496265 8.96505 0.495826 8.892 0.511986l-8 1.778004c-0.111124 0.02458 -0.210536 0.08634 -0.28181 0.17507S0.500045 2.66418 0.5 2.77799V21.222Z" stroke-width="1"></path>
  <path fill="#e3bfb3" d="m4.5 1.48801 -3.607997 0.8c-0.111459 0.02465 -0.211126 0.08671 -0.282437 0.17585 -0.071312 0.08914 -0.109974 0.19999 -0.109563 0.31415V21.222c0.000045 0.1138 0.038916 0.2242 0.11019 0.3129 0.071274 0.0888 0.170686 0.1505 0.28181 0.1751L4.5 22.51V1.48801Z" stroke-width="1"></path>
  <path stroke="#191919" stroke-linecap="round" stroke-linejoin="round" d="M0.5 21.222c0.000045 0.1138 0.038916 0.2242 0.11019 0.3129s0.170686 0.1505 0.28181 0.1751l8 1.778c0.07305 0.0161 0.1488 0.0157 0.22166 -0.0013 0.07285 -0.017 0.14097 -0.0501 0.19931 -0.097 0.05835 -0.0468 0.10544 -0.1061 0.13781 -0.1736 0.03237 -0.0674 0.04919 -0.1413 0.04922 -0.2161V0.999986C9.49997 0.92517 9.48315 0.851313 9.45078 0.783861 9.41841 0.716409 9.37132 0.657081 9.31297 0.61025 9.25463 0.563419 9.18651 0.530278 9.11366 0.513272 9.0408 0.496265 8.96505 0.495826 8.892 0.511986l-8 1.778004c-0.111124 0.02458 -0.210536 0.08634 -0.28181 0.17507S0.500045 2.66418 0.5 2.77799V21.222Z" stroke-width="1"></path>
  <path fill="#808080" stroke="#191919" stroke-linecap="round" stroke-linejoin="round" d="M6 13.5c0.82843 0 1.5 -0.6716 1.5 -1.5s-0.67157 -1.5 -1.5 -1.5 -1.5 0.6716 -1.5 1.5 0.67157 1.5 1.5 1.5Z" stroke-width="1"></path>
</svg>