<svg xmlns="http://www.w3.org/2000/svg" fill="none" viewBox="0 0 24 24" id="Architecture-Door--Streamline-Ultimate"
     height="24" width="24">
    <style>
        /* Couleurs par défaut (Mode Clair) */
        .door-stroke { stroke: #191919; }
        .handle { stroke: #191919; fill: #808080; }

        /* Couleurs pour le Mode Sombre */
        @media (prefers-color-scheme: dark) {
        .door-stroke { stroke: #ffffff; }
        .handle { stroke: #ffffff; }
        }
    </style>
    <!-- Structure principale de la porte -->
    <path fill="#c77f67"
          d="M5 20.5v-19c0 -0.26522 0.10536 -0.51957 0.29289 -0.707107C5.48043 0.605357 5.73478 0.5 6 0.5h12c0.2652 0 0.5196 0.105357 0.7071 0.292893C18.8946 0.98043 19 1.23478 19 1.5v19H5Z"
          stroke-width="1"></path>
    <path fill="#e3bfb3"
          d="M18 0.5H6c-0.26522 0 -0.51957 0.105357 -0.70711 0.292893C5.10536 0.98043 5 1.23478 5 1.5v3c0 -0.26522 0.10536 -0.51957 0.29289 -0.70711C5.48043 3.60536 5.73478 3.5 6 3.5h12c0.2652 0 0.5196 0.10536 0.7071 0.29289 0.1875 0.18754 0.2929 0.44189 0.2929 0.70711v-3c0 -0.26522 -0.1054 -0.51957 -0.2929 -0.707107C18.5196 0.605357 18.2652 0.5 18 0.5Z"
          stroke-width="1"></path>

     <!-- Poignée de la porte -->
    <path class="handle" fill="#808080" stroke-linecap="round" stroke-linejoin="round"
          d="M15.501 12.5c0.8284 0 1.5 -0.6716 1.5 -1.5s-0.6716 -1.5 -1.5 -1.5 -1.5 0.6716 -1.5 1.5 0.6716 1.5 1.5 1.5Z"
          stroke-width="1"></path>

    <!-- Contour extérieur de la porte -->
    <path class="door-stroke" stroke-linecap="round" stroke-linejoin="round"
          d="M5 20.5v-19c0 -0.26522 0.10536 -0.51957 0.29289 -0.707107C5.48043 0.605357 5.73478 0.5 6 0.5h12c0.2652 0 0.5196 0.105357 0.7071 0.292893C18.8946 0.98043 19 1.23478 19 1.5v19"
          stroke-width="1"></path>

    <!-- Seuil de la porte (marche) -->
    <path class="handle" fill="#808080" stroke="#191919" stroke-linecap="round" stroke-linejoin="round"
          d="M21 21.5c0 -0.2652 -0.1054 -0.5196 -0.2929 -0.7071S20.2652 20.5 20 20.5H4c-0.26522 0 -0.51957 0.1054 -0.70711 0.2929C3.10536 20.9804 3 21.2348 3 21.5V23c0 0.1326 0.05268 0.2598 0.14645 0.3536 0.09376 0.0937 0.22094 0.1464 0.35355 0.1464h17c0.1326 0 0.2598 -0.0527 0.3536 -0.1464 0.0937 -0.0938 0.1464 -0.221 0.1464 -0.3536v-1.5Z"
          stroke-width="1"></path>
</svg>