<svg xmlns="http://www.w3.org/2000/svg" fill="none" viewBox="0 0 24 24" id="Single-Neutral_1--Streamline-Ultimate" height="24" width="24">
  <desc>
    Single Neutral_1 Streamline Icon: https://streamlinehq.com
  </desc>
  <path fill="#ffdda1" d="M12 12.25a5.5 5.5 0 1 0 0 -11 5.5 5.5 0 0 0 0 11Z" stroke-width="1"></path>
  <path fill="#66e1ff" d="M3 22.75a9 9 0 0 1 18 0H3Z" stroke-width="1"></path>
  <path fill="#ffdda1" d="M12 3.581a5.5 5.5 0 0 1 5.374 4.334 5.5 5.5 0 1 0 -10.748 0A5.5 5.5 0 0 1 12 3.581Z" stroke-width="1"></path>
  <path fill="#c2f3ff" d="M12 16.081a8.994 8.994 0 0 1 8.684 6.669H21a9 9 0 0 0 -18 0h0.316A8.995 8.995 0 0 1 12 16.081Z" stroke-width="1"></path>
  <path stroke="#191919" stroke-linecap="round" stroke-linejoin="round" d="M12 12.25a5.5 5.5 0 1 0 0 -11 5.5 5.5 0 0 0 0 11Z" stroke-width="1"></path>
  <path stroke="#191919" stroke-linecap="round" stroke-linejoin="round" d="M3 22.75a9 9 0 0 1 18 0H3Z" stroke-width="1"></path>
</svg>