<?xml version="1.0" encoding="UTF-8"?>
<svg id="Login-3--Streamline-Ultimate" width="24" height="24" fill="none" version="1.1" viewBox="0 0 24 24" xmlns="http://www.w3.org/2000/svg"><desc>Login 3 Streamline Icon: https://streamlinehq.com</desc><path d="m6.5 5.5v-2.5c0-.13261.0527-.25979.1464-.35355.0938-.09377.221-.14645.3536-.14645h7.5v19h-7.5c-.1326 0-.2598-.0527-.3536-.1464-.0937-.0938-.1464-.221-.1464-.3536v-2.5" fill="#333"/><g stroke="#fff" stroke-linecap="round" stroke-linejoin="round"><path d="m6.5 5.5v-2.5c0-.13261.0527-.25979.1464-.35355.0938-.09377.221-.14645.3536-.14645h7.5v19h-7.5c-.1326 0-.2598-.0527-.3536-.1464-.0937-.0938-.1464-.221-.1464-.3536v-2.5"/><path d="m5.0934 16.756v-9.3082" stroke-width=".88073"/><path d="m.44627 12.086h9.3082" stroke-width=".88073"/></g><path d="m23.5 21.222c-4.5e-5.1138-.03892.2242-.11019.3129s-.17069.1505-.28181.1751l-8 1.778c-.07305.0161-.1488.0157-.22166-.0013-.07285-.017-.14097-.0501-.19931-.097-.05835-.0468-.10544-.1061-.13781-.1736-.03237-.0674-.04919-.1413-.04922-.2161v-22c3e-5-.074816.01685-.14867.04922-.21612s.07946-.12678.13781-.17361c.05834-.046831.12646-.079972.19931-.096978.07286-.017007.14861-.017446.22166-.001286l8 1.778c.11112.02458.21054.08634.28181.17507s.11014.19912.11019.31293z" fill="#c77f67"/><path d="m19.5 1.488 3.608.8c.11146.02465.21113.08671.28244.17585s.10997.19999.10956.31415v18.444c-4.5e-5.1138-.03892.2242-.11019.3129-.07127.0888-.17069.1505-.28181.1751l-3.608.8z" fill="#e3bfb3"/><path d="m23.5 21.222c-4.5e-5.1138-.03892.2242-.11019.3129s-.17069.1505-.28181.1751l-8 1.778c-.07305.0161-.1488.0157-.22166-.0013-.07285-.017-.14097-.0501-.19931-.097-.05835-.0468-.10544-.1061-.13781-.1736-.03237-.0674-.04919-.1413-.04922-.2161v-22c3e-5-.074816.01685-.14867.04922-.21612s.07946-.12678.13781-.17361c.05834-.046831.12646-.079972.19931-.096978.07286-.017007.14861-.017446.22166-.001286l8 1.778c.11112.02458.21054.08634.28181.17507s.11014.19912.11019.31293z" stroke="#fff" stroke-linecap="round" stroke-linejoin="round"/><path d="m18 13.5c-.82843 0-1.5-.6716-1.5-1.5s.67157-1.5 1.5-1.5 1.5.6716 1.5 1.5-.67157 1.5-1.5 1.5z" fill="#808080" stroke="#fff" stroke-linecap="round" stroke-linejoin="round"/></svg>
