<?xml version="1.0" encoding="UTF-8"?>
<svg width="60" height="30" version="1.1" viewBox="0 0 480 240" xmlns="http://www.w3.org/2000/svg"><g transform="matrix(.05 0 0 .05 .42301 -.14098)"><path d="m0 0h2400l99 99h4602l99-99h2400v4800h-2400l-99-99h-4602l-99 99h-2400z" fill="#d52b1e"/><path d="m2400 0h4800v4800h-4800zm2490 4430-45-863a95 95 0 01111-98l859 151-116-320a65 65 0 0120-73l941-762-212-99a65 65 0 01-34-79l186-572-542 115a65 65 0 01-73-38l-105-247-423 454a65 65 0 01-111-57l204-1052-327 189a65 65 0 01-91-27l-332-652-332 652a65 65 0 01-91 27l-327-189 204 1052a65 65 0 01-111 57l-423-454-105 247a65 65 0 01-73 38l-542-115 186 572a65 65 0 01-34 79l-212 99 941 762a65 65 0 0120 73l-116 320 859-151a95 95 0 01111 98l-45 863z" fill="#fff"/></g></svg>
