<svg xmlns="http://www.w3.org/2000/svg" xmlns:xlink="http://www.w3.org/1999/xlink" xmlns:lucid="lucid" width="631" height="516"><g transform="translate(-7142 3109)" lucid:page-tab-id="0_0"><path d="M6401.6-3742.86a6 6 0 0 1 6-6h2224.3a6 6 0 0 1 6 6V824.58a6 6 0 0 1-6 6H6407.6a6 6 0 0 1-6-6z" stroke="#000" stroke-width="4" fill="none"/><path d="M6401.6-3791.1a6 6 0 0 1 6-6h535.15a6 6 0 0 1 6 6v24.24a6 6 0 0 1-6 6H6407.6a6 6 0 0 1-6-6z" stroke="#000" stroke-width="4"/><use xlink:href="#a" transform="matrix(1,0,0,1,6409.6077500933425,-3789.1127950098535) translate(0 16.589501953125)"/><use xlink:href="#b" transform="matrix(1,0,0,1,6409.6077500933425,-3789.1127950098535) translate(90.58236328125001 16.589501953125)"/><use xlink:href="#c" transform="matrix(1,0,0,1,6409.6077500933425,-3789.1127950098535) translate(140.13210937500003 16.589501953125)"/><use xlink:href="#d" transform="matrix(1,0,0,1,6409.6077500933425,-3789.1127950098535) translate(248.46802734375 16.589501953125)"/><use xlink:href="#e" transform="matrix(1,0,0,1,6409.6077500933425,-3789.1127950098535) translate(385.88642578125 16.589501953125)"/><use xlink:href="#f" transform="matrix(1,0,0,1,6409.6077500933425,-3789.1127950098535) translate(398.294296875 16.589501953125)"/><use xlink:href="#g" transform="matrix(1,0,0,1,6409.6077500933425,-3789.1127950098535) translate(458.73158203125 16.589501953125)"/><use xlink:href="#h" transform="matrix(1,0,0,1,6409.6077500933425,-3789.1127950098535) translate(499.0939453125 16.589501953125)"/><path d="M7164.4-2860.28a12 12 0 0 1 12-12h578.47a12 12 0 0 1 12 12v238a12 12 0 0 1-12 12H7176.4a12 12 0 0 1-12-12z" fill="#fff0fb"/><path d="M7164.4-2860.28a12 12 0 0 1 12-12h578.47a12 12 0 0 1 12 12v28H7164.4z" fill="#ccc0c9"/><path d="M7164.4-2832.28h602.47v38H7164.4z" fill="#fff0fb"/><path d="M7164.4-2795.28h602.47v38H7164.4z" fill="#e6d8e2"/><path d="M7164.4-2758.28h602.47v38H7164.4z" fill="#fff0fb"/><path d="M7164.4-2721.28h602.47v38H7164.4z" fill="#e6d8e2"/><path d="M7164.4-2684.28h602.47v38H7164.4z" fill="#fff0fb"/><path d="M7164.4-2647.28h602.47v25a12 12 0 0 1-12 12H7176.4a12 12 0 0 1-12-12z" fill="#e6d8e2"/><path d="M7165.4-2832.28h600.47-600.46zM7164.4-2860.28a12 12 0 0 1 12-12h578.47a12 12 0 0 1 12 12v238a12 12 0 0 1-12 12H7176.4a12 12 0 0 1-12-12zM7224.4-2831.28v220zM7475.26-2831.28v220z" stroke="#ff80df" stroke-width="2" fill="none"/><use xlink:href="#i" transform="matrix(1,0,0,1,7174.413001553568,-2872.2750151623795) translate(214.37326388888889 28.08376736111111)"/><use xlink:href="#j" transform="matrix(1,0,0,1,7169.413001553568,-2829.7750151623795) translate(7.140185546874996 22.089501953125)"/><use xlink:href="#k" transform="matrix(1,0,0,1,7229.413001553568,-2829.7750151623795) translate(0 24.08376736111111)"/><use xlink:href="#l" transform="matrix(1,0,0,1,7229.413001553568,-2829.7750151623795) translate(25.23871527777778 24.08376736111111)"/><use xlink:href="#m" transform="matrix(1,0,0,1,7480.262292268045,-2829.7750151623795) translate(0 24.08376736111111)"/><use xlink:href="#n" transform="matrix(1,0,0,1,7480.262292268045,-2829.7750151623795) translate(64.6484375 24.08376736111111)"/><use xlink:href="#j" transform="matrix(1,0,0,1,7169.413001553568,-2792.7750151623795) translate(7.140185546874996 22.089501953125)"/><use xlink:href="#o" transform="matrix(1,0,0,1,7229.413001553568,-2792.7750151623795) translate(0 24.08376736111111)"/><use xlink:href="#p" transform="matrix(1,0,0,1,7229.413001553568,-2792.7750151623795) translate(82.31336805555554 24.08376736111111)"/><use xlink:href="#q" transform="matrix(1,0,0,1,7480.262292268045,-2792.7750151623795) translate(0 24.08376736111111)"/><use xlink:href="#j" transform="matrix(1,0,0,1,7169.413001553568,-2755.7750151623795) translate(7.140185546874996 22.089501953125)"/><use xlink:href="#r" transform="matrix(1,0,0,1,7229.413001553568,-2755.7750151623795) translate(0 24.08376736111111)"/><use xlink:href="#p" transform="matrix(1,0,0,1,7229.413001553568,-2755.7750151623795) translate(75.78124999999999 24.08376736111111)"/><use xlink:href="#q" transform="matrix(1,0,0,1,7480.262292268045,-2755.7750151623795) translate(0 24.08376736111111)"/><use xlink:href="#j" transform="matrix(1,0,0,1,7169.413001553568,-2718.7750151623795) translate(7.140185546874996 22.089501953125)"/><use xlink:href="#s" transform="matrix(1,0,0,1,7229.413001553568,-2718.7750151623795) translate(0 24.08376736111111)"/><use xlink:href="#p" transform="matrix(1,0,0,1,7229.413001553568,-2718.7750151623795) translate(131.4453125 24.08376736111111)"/><use xlink:href="#m" transform="matrix(1,0,0,1,7480.262292268045,-2718.7750151623795) translate(0 24.08376736111111)"/><use xlink:href="#t" transform="matrix(1,0,0,1,7480.262292268045,-2718.7750151623795) translate(64.6484375 24.08376736111111)"/><use xlink:href="#u" transform="matrix(1,0,0,1,7480.262292268045,-2718.7750151623795) translate(185.10199652777777 24.08376736111111)"/><use xlink:href="#j" transform="matrix(1,0,0,1,7169.413001553568,-2681.7750151623795) translate(7.140185546874996 22.089501953125)"/><use xlink:href="#v" transform="matrix(1,0,0,1,7229.413001553568,-2681.7750151623795) translate(0 24.08376736111111)"/><use xlink:href="#p" transform="matrix(1,0,0,1,7229.413001553568,-2681.7750151623795) translate(119.32508680555554 24.08376736111111)"/><use xlink:href="#m" transform="matrix(1,0,0,1,7480.262292268045,-2681.7750151623795) translate(0 24.08376736111111)"/><use xlink:href="#t" transform="matrix(1,0,0,1,7480.262292268045,-2681.7750151623795) translate(64.6484375 24.08376736111111)"/><use xlink:href="#u" transform="matrix(1,0,0,1,7480.262292268045,-2681.7750151623795) translate(185.10199652777777 24.08376736111111)"/><use xlink:href="#j" transform="matrix(1,0,0,1,7169.413001553568,-2644.7750151623795) translate(7.140185546874996 22.089501953125)"/><use xlink:href="#w" transform="matrix(1,0,0,1,7229.413001553568,-2644.7750151623795) translate(0 24.08376736111111)"/><use xlink:href="#x" transform="matrix(1,0,0,1,7480.262292268045,-2644.7750151623795) translate(0 24.08376736111111)"/><use xlink:href="#y" transform="matrix(1,0,0,1,7480.262292268045,-2644.7750151623795) translate(69.97612847222223 24.08376736111111)"/><path d="M7161.35-2583.05a12 12 0 0 1 12-12h583.45a12 12 0 0 1 12 12v386a12 12 0 0 1-12 12h-583.45a12 12 0 0 1-12-12z" fill="#fff0fb"/><path d="M7161.35-2583.05a12 12 0 0 1 12-12h583.45a12 12 0 0 1 12 12v28h-607.45z" fill="#ccc0c9"/><path d="M7161.35-2555.05h607.45v38h-607.45z" fill="#fff0fb"/><path d="M7161.35-2518.05h607.45v38h-607.45z" fill="#e6d8e2"/><path d="M7161.35-2481.05h607.45v38h-607.45z" fill="#fff0fb"/><path d="M7161.35-2444.05h607.45v38h-607.45z" fill="#e6d8e2"/><path d="M7161.35-2407.05h607.45v38h-607.45z" fill="#fff0fb"/><path d="M7161.35-2370.05h607.45v38h-607.45z" fill="#e6d8e2"/><path d="M7161.35-2333.05h607.45v38h-607.45z" fill="#fff0fb"/><path d="M7161.35-2296.05h607.45v38h-607.45z" fill="#e6d8e2"/><path d="M7161.35-2259.05h607.45v38h-607.45z" fill="#fff0fb"/><path d="M7161.35-2222.05h607.45v25a12 12 0 0 1-12 12h-583.45a12 12 0 0 1-12-12z" fill="#e6d8e2"/><path d="M7162.35-2555.05h605.45-605.45zM7161.35-2583.05a12 12 0 0 1 12-12h583.45a12 12 0 0 1 12 12v386a12 12 0 0 1-12 12h-583.45a12 12 0 0 1-12-12zM7221.35-2554.05v368zM7470.6-2554.05v368z" stroke="#ff80df" stroke-width="2" fill="none"/><use xlink:href="#z" transform="matrix(1,0,0,1,7171.350576648254,-2595.0450032176846) translate(200.70572916666666 28.08376736111111)"/><use xlink:href="#A" transform="matrix(1,0,0,1,7166.350576648254,-2552.5450032176846) translate(6.318715820312498 22.089501953125)"/><use xlink:href="#k" transform="matrix(1,0,0,1,7226.350576648254,-2552.5450032176846) translate(0 24.08376736111111)"/><use xlink:href="#l" transform="matrix(1,0,0,1,7226.350576648254,-2552.5450032176846) translate(25.23871527777778 24.08376736111111)"/><use xlink:href="#m" transform="matrix(1,0,0,1,7475.595625601378,-2552.5450032176846) translate(0 24.08376736111111)"/><use xlink:href="#n" transform="matrix(1,0,0,1,7475.595625601378,-2552.5450032176846) translate(64.6484375 24.08376736111111)"/><use xlink:href="#A" transform="matrix(1,0,0,1,7166.350576648254,-2515.5450032176846) translate(6.318715820312498 22.089501953125)"/><use xlink:href="#B" transform="matrix(1,0,0,1,7226.350576648254,-2515.5450032176846) translate(0 24.08376736111111)"/><use xlink:href="#C" transform="matrix(1,0,0,1,7475.595625601378,-2515.5450032176846) translate(0 24.08376736111111)"/><use xlink:href="#A" transform="matrix(1,0,0,1,7166.350576648254,-2478.5450032176846) translate(6.318715820312498 22.089501953125)"/><use xlink:href="#D" transform="matrix(1,0,0,1,7226.350576648254,-2478.5450032176846) translate(0 24.08376736111111)"/><use xlink:href="#p" transform="matrix(1,0,0,1,7226.350576648254,-2478.5450032176846) translate(132.85590277777777 24.08376736111111)"/><use xlink:href="#q" transform="matrix(1,0,0,1,7475.595625601378,-2478.5450032176846) translate(0 24.08376736111111)"/><use xlink:href="#A" transform="matrix(1,0,0,1,7166.350576648254,-2441.5450032176846) translate(6.318715820312498 22.089501953125)"/><use xlink:href="#E" transform="matrix(1,0,0,1,7226.350576648254,-2441.5450032176846) translate(0 24.08376736111111)"/><use xlink:href="#p" transform="matrix(1,0,0,1,7226.350576648254,-2441.5450032176846) translate(82.31336805555554 24.08376736111111)"/><use xlink:href="#q" transform="matrix(1,0,0,1,7475.595625601378,-2441.5450032176846) translate(0 24.08376736111111)"/><use xlink:href="#A" transform="matrix(1,0,0,1,7166.350576648254,-2404.5450032176846) translate(6.318715820312498 22.089501953125)"/><use xlink:href="#F" transform="matrix(1,0,0,1,7226.350576648254,-2404.5450032176846) translate(0 24.08376736111111)"/><use xlink:href="#p" transform="matrix(1,0,0,1,7226.350576648254,-2404.5450032176846) translate(75.6618923611111 24.08376736111111)"/><use xlink:href="#m" transform="matrix(1,0,0,1,7475.595625601378,-2404.5450032176846) translate(0 24.08376736111111)"/><use xlink:href="#G" transform="matrix(1,0,0,1,7475.595625601378,-2404.5450032176846) translate(64.6484375 24.08376736111111)"/><use xlink:href="#A" transform="matrix(1,0,0,1,7166.350576648254,-2367.5450032176846) translate(6.318715820312498 22.089501953125)"/><use xlink:href="#H" transform="matrix(1,0,0,1,7226.350576648254,-2367.5450032176846) translate(0 24.08376736111111)"/><use xlink:href="#p" transform="matrix(1,0,0,1,7226.350576648254,-2367.5450032176846) translate(131.4453125 24.08376736111111)"/><use xlink:href="#m" transform="matrix(1,0,0,1,7475.595625601378,-2367.5450032176846) translate(0 24.08376736111111)"/><use xlink:href="#G" transform="matrix(1,0,0,1,7475.595625601378,-2367.5450032176846) translate(64.6484375 24.08376736111111)"/><use xlink:href="#A" transform="matrix(1,0,0,1,7166.350576648254,-2330.5450032176846) translate(6.318715820312498 22.089501953125)"/><use xlink:href="#I" transform="matrix(1,0,0,1,7226.350576648254,-2330.5450032176846) translate(0 24.08376736111111)"/><use xlink:href="#J" transform="matrix(1,0,0,1,7475.595625601378,-2330.5450032176846) translate(0 24.08376736111111)"/><use xlink:href="#K" transform="matrix(1,0,0,1,7475.595625601378,-2330.5450032176846) translate(97.41753472222221 24.08376736111111)"/><use xlink:href="#A" transform="matrix(1,0,0,1,7166.350576648254,-2293.5450032176846) translate(6.318715820312498 22.089501953125)"/><use xlink:href="#L" transform="matrix(1,0,0,1,7226.350576648254,-2293.5450032176846) translate(0 24.08376736111111)"/><use xlink:href="#M" transform="matrix(1,0,0,1,7226.350576648254,-2293.5450032176846) translate(134.42925347222223 24.08376736111111)"/><use xlink:href="#N" transform="matrix(1,0,0,1,7226.350576648254,-2293.5450032176846) translate(168.72829861111111 24.08376736111111)"/><use xlink:href="#q" transform="matrix(1,0,0,1,7475.595625601378,-2293.5450032176846) translate(0 24.08376736111111)"/><use xlink:href="#A" transform="matrix(1,0,0,1,7166.350576648254,-2256.5450032176846) translate(6.318715820312498 22.089501953125)"/><g><use xlink:href="#O" transform="matrix(1,0,0,1,7226.350576648254,-2256.5450032176846) translate(0 24.08376736111111)"/></g><g><use xlink:href="#P" transform="matrix(1,0,0,1,7475.595625601378,-2256.5450032176846) translate(0 24.08376736111111)"/></g><g><use xlink:href="#A" transform="matrix(1,0,0,1,7166.350576648254,-2219.5450032176846) translate(6.318715820312498 22.089501953125)"/></g><g><use xlink:href="#Q" transform="matrix(1,0,0,1,7226.350576648254,-2219.5450032176846) translate(0 24.08376736111111)"/></g><g><use xlink:href="#R" transform="matrix(1,0,0,1,7475.595625601378,-2219.5450032176846) translate(0 24.08376736111111)"/></g><path d="M7158.77-3068.33a12 12 0 0 1 12-12h578.46a12 12 0 0 1 12 12v164a12 12 0 0 1-12 12h-578.46a12 12 0 0 1-12-12z" fill="#fff0fb"/><path d="M7158.77-3068.33a12 12 0 0 1 12-12h578.46a12 12 0 0 1 12 12v28h-602.46z" fill="#ccc0c9"/><path d="M7158.77-3040.33h602.46v38h-602.46z" fill="#fff0fb"/><path d="M7158.77-3003.33h602.46v38h-602.46z" fill="#e6d8e2"/><path d="M7158.77-2966.33h602.46v38h-602.46z" fill="#fff0fb"/><path d="M7158.77-2929.33h602.46v25a12 12 0 0 1-12 12h-578.46a12 12 0 0 1-12-12z" fill="#e6d8e2"/><path d="M7159.77-3040.33h600.46-600.46zM7158.77-3068.33a12 12 0 0 1 12-12h578.46a12 12 0 0 1 12 12v164a12 12 0 0 1-12 12h-578.46a12 12 0 0 1-12-12zM7218.77-3039.33v146zM7469.62-3039.33v146z" stroke="#ff80df" stroke-width="2" fill="none"/><g><use xlink:href="#S" transform="matrix(1,0,0,1,7168.773527467915,-3080.333333333333) translate(163.36957465277777 28.08376736111111)"/></g><g><use xlink:href="#j" transform="matrix(1,0,0,1,7163.773527467915,-3037.833333333333) translate(7.140185546874996 22.089501953125)"/></g><g><use xlink:href="#k" transform="matrix(1,0,0,1,7223.773527467915,-3037.833333333333) translate(0 24.08376736111111)"/><use xlink:href="#l" transform="matrix(1,0,0,1,7223.773527467915,-3037.833333333333) translate(25.23871527777778 24.08376736111111)"/></g><g><use xlink:href="#m" transform="matrix(1,0,0,1,7474.622818182392,-3037.833333333333) translate(0 24.08376736111111)"/><use xlink:href="#n" transform="matrix(1,0,0,1,7474.622818182392,-3037.833333333333) translate(64.6484375 24.08376736111111)"/></g><g><use xlink:href="#j" transform="matrix(1,0,0,1,7163.773527467915,-3000.833333333333) translate(7.140185546874996 22.089501953125)"/></g><g><use xlink:href="#o" transform="matrix(1,0,0,1,7223.773527467915,-3000.833333333333) translate(0 24.08376736111111)"/><use xlink:href="#p" transform="matrix(1,0,0,1,7223.773527467915,-3000.833333333333) translate(82.31336805555554 24.08376736111111)"/></g><g><use xlink:href="#q" transform="matrix(1,0,0,1,7474.622818182392,-3000.833333333333) translate(0 24.08376736111111)"/></g><g><use xlink:href="#j" transform="matrix(1,0,0,1,7163.773527467915,-2963.833333333333) translate(7.140185546874996 22.089501953125)"/></g><g><use xlink:href="#s" transform="matrix(1,0,0,1,7223.773527467915,-2963.833333333333) translate(0 24.08376736111111)"/><use xlink:href="#p" transform="matrix(1,0,0,1,7223.773527467915,-2963.833333333333) translate(131.4453125 24.08376736111111)"/></g><g><use xlink:href="#m" transform="matrix(1,0,0,1,7474.622818182392,-2963.833333333333) translate(0 24.08376736111111)"/><use xlink:href="#t" transform="matrix(1,0,0,1,7474.622818182392,-2963.833333333333) translate(64.6484375 24.08376736111111)"/><use xlink:href="#u" transform="matrix(1,0,0,1,7474.622818182392,-2963.833333333333) translate(185.10199652777777 24.08376736111111)"/></g><g><use xlink:href="#j" transform="matrix(1,0,0,1,7163.773527467915,-2926.833333333333) translate(7.140185546874996 22.089501953125)"/></g><g><use xlink:href="#v" transform="matrix(1,0,0,1,7223.773527467915,-2926.833333333333) translate(0 24.08376736111111)"/><use xlink:href="#p" transform="matrix(1,0,0,1,7223.773527467915,-2926.833333333333) translate(119.32508680555554 24.08376736111111)"/></g><g><use xlink:href="#m" transform="matrix(1,0,0,1,7474.622818182392,-2926.833333333333) translate(0 24.08376736111111)"/><use xlink:href="#t" transform="matrix(1,0,0,1,7474.622818182392,-2926.833333333333) translate(64.6484375 24.08376736111111)"/><use xlink:href="#u" transform="matrix(1,0,0,1,7474.622818182392,-2926.833333333333) translate(185.10199652777777 24.08376736111111)"/></g><defs><path fill="#fff" d="M645 0H180v-1490h484c435 0 692 280 692 742 0 466-257 748-711 748zM370-168h263c363 0 539-218 539-580 0-358-176-574-521-574H370v1154" id="T"/><path fill="#fff" d="M52 0l541-1490h220L1361 0h-200l-149-416H398L254 0H52zm404-582h497c-103-290-145-390-251-756-108 377-145 460-246 756" id="U"/><path fill="#fff" d="M98-1322v-168h1126v168H757V0H567v-1322H98" id="V"/><path fill="#fff" d="M180 0v-1490h528c311 0 458 177 458 395 0 191-114 278-244 313v14c139 9 302 137 302 371 0 225-148 397-499 397H180zm190-168h350c232 0 321-102 321-231 0-149-120-277-311-277H370v508zm0-668h328c160 0 286-101 286-255 0-129-87-231-280-231H370v486" id="W"/><path fill="#fff" d="M657 26c-323 0-524-166-541-416h195c15 169 171 246 346 246 202 0 356-106 356-265 5-203-294-238-475-293-239-73-380-191-380-389 0-252 224-419 512-419 294 0 499 171 508 396H992c-17-145-151-228-328-228-193 0-321 102-321 242 0 156 175 211 284 241l149 41c160 44 422 134 422 412 0 244-197 432-541 432" id="X"/><path fill="#fff" d="M180 0v-1490h908v168H370v486h669v168H370v500h727V0H180" id="Y"/><g id="a"><use transform="matrix(0.008173828125000001,0,0,0.008173828125000001,0,0)" xlink:href="#T"/><use transform="matrix(0.008173828125000001,0,0,0.008173828125000001,11.508750000000001,0)" xlink:href="#U"/><use transform="matrix(0.008173828125000001,0,0,0.008173828125000001,21.636123046875003,0)" xlink:href="#V"/><use transform="matrix(0.008173828125000001,0,0,0.008173828125000001,31.019677734375,0)" xlink:href="#U"/><use transform="matrix(0.008173828125000001,0,0,0.008173828125000001,42.569296875000006,0)" xlink:href="#W"/><use transform="matrix(0.008173828125000001,0,0,0.008173828125000001,53.52222656250001,0)" xlink:href="#U"/><use transform="matrix(0.008173828125000001,0,0,0.008173828125000001,65.071845703125,0)" xlink:href="#X"/><use transform="matrix(0.008173828125000001,0,0,0.008173828125000001,75.81225585937501,0)" xlink:href="#Y"/></g><path fill="#fff" d="M598-1118v154H368v674c0 100 37 144 132 144 23 0 62-6 92-12L629-6c-37 13-88 20-134 20-193 0-307-107-307-290v-688H20v-154h168v-266h180v266h230" id="Z"/><path fill="#fff" d="M613 24c-304 0-509-231-509-576 0-350 205-580 509-580 305 0 511 230 511 580 0 345-206 576-511 576zm0-161c226 0 329-195 329-415 0-222-103-419-329-419-223 0-326 196-326 419 0 220 103 415 326 415" id="aa"/><path fill="#fff" d="M613 24c-304 0-509-231-509-576 0-350 205-580 509-580 216 0 392 114 453 309l-173 49c-33-115-133-197-280-197-223 0-326 196-326 419 0 220 103 415 326 415 150 0 252-85 285-206l172 49C1010-95 832 24 613 24" id="ab"/><path fill="#fff" d="M158 0v-1490h180v865h22l478-493h223L593-638 1096 0H865L456-523 338-412V0H158" id="ac"/><g id="b"><use transform="matrix(0.008173828125000001,0,0,0.008173828125000001,0,0)" xlink:href="#X"/><use transform="matrix(0.008173828125000001,0,0,0.008173828125000001,10.740410156250002,0)" xlink:href="#Z"/><use transform="matrix(0.008173828125000001,0,0,0.008173828125000001,16.053398437500004,0)" xlink:href="#aa"/><use transform="matrix(0.008173828125000001,0,0,0.008173828125000001,26.090859375000004,0)" xlink:href="#ab"/><use transform="matrix(0.008173828125000001,0,0,0.008173828125000001,35.65423828125,0)" xlink:href="#ac"/></g><path fill="#fff" d="M180 0v-1490h270l367 940c28 72 75 218 110 339 35-117 81-264 110-339l362-940h271V0h-187c2-448-5-837 7-1287-157 497-311 829-483 1287H842C666-458 514-784 354-1284c12 438 5 843 7 1284H180" id="ad"/><path fill="#fff" d="M471 26C259 26 90-98 90-318c0-256 228-303 435-329 202-27 287-16 287-108 0-139-79-219-234-219-161 0-248 86-283 164l-173-57c86-203 278-265 451-265 150 0 419 46 419 395V0H815v-152h-12C765-73 660 26 471 26zm31-159c199 0 310-134 310-271v-155c-30 35-226 55-295 64-131 17-246 59-246 186 0 116 97 176 231 176" id="ae"/><path fill="#fff" d="M338-670V0H158v-1118h173l1 207c72-158 192-221 342-221 226 0 378 139 378 422V0H872v-695c0-172-96-275-252-275-161 0-282 109-282 300" id="af"/><path fill="#fff" d="M611 442c-248 0-391-105-460-228l146-94c47 65 117 165 314 165 178 0 307-82 307-266v-224h-17C863-141 792-18 576-18c-268 0-472-195-472-546 0-346 197-568 476-568 216 0 288 133 326 193h17v-179h175V29c0 289-215 413-487 413zm-5-620c203 0 314-146 314-390 0-237-108-403-314-403-213 0-319 180-319 403 0 230 109 390 319 390" id="ag"/><path fill="#fff" d="M628 24c-324 0-524-230-524-574 0-343 198-582 503-582 237 0 487 146 487 559v75H286c9 234 145 362 343 362 132 0 231-58 273-172l174 48C1024-91 857 24 628 24zM287-650h624c-17-190-120-322-304-322-192 0-309 151-320 322" id="ah"/><path fill="#fff" d="M158 0v-1118h175l1 205c55-151 181-225 313-225 147 0 245 90 285 228 53-141 190-228 352-228 194 0 352 125 352 384V0h-181v-749c0-161-105-225-225-225-151 0-243 103-243 244V0H807v-767c0-124-93-207-219-207-131 0-250 92-250 270V0H158" id="ai"/><g id="c"><use transform="matrix(0.008173828125000001,0,0,0.008173828125000001,0,0)" xlink:href="#ad"/><use transform="matrix(0.008173828125000001,0,0,0.008173828125000001,15.121582031250002,0)" xlink:href="#ae"/><use transform="matrix(0.008173828125000001,0,0,0.008173828125000001,24.521484375000004,0)" xlink:href="#af"/><use transform="matrix(0.008173828125000001,0,0,0.008173828125000001,34.411816406250004,0)" xlink:href="#ae"/><use transform="matrix(0.008173828125000001,0,0,0.008173828125000001,43.811718750000004,0)" xlink:href="#ag"/><use transform="matrix(0.008173828125000001,0,0,0.008173828125000001,54.078046875000005,0)" xlink:href="#ah"/><use transform="matrix(0.008173828125000001,0,0,0.008173828125000001,63.837597656250004,0)" xlink:href="#ai"/><use transform="matrix(0.008173828125000001,0,0,0.008173828125000001,78.50144531250001,0)" xlink:href="#ah"/><use transform="matrix(0.008173828125000001,0,0,0.008173828125000001,88.26099609375001,0)" xlink:href="#af"/><use transform="matrix(0.008173828125000001,0,0,0.008173828125000001,98.151328125,0)" xlink:href="#Z"/></g><path fill="#fff" d="M537 14c-226 0-379-139-379-422v-710h180v695c0 172 97 275 253 275 160 0 281-109 281-300v-670h181V0H879v-209C806-46 684 14 537 14" id="aj"/><path fill="#fff" d="M338-1490V0H158v-1490h180" id="ak"/><path fill="#fff" d="M158 0v-1118h180V0H158zm91-1301c-68 0-125-53-125-119s57-119 125-119c69 0 126 53 126 119s-57 119-126 119" id="al"/><path fill="#fff" d="M798-719v166H144v-166h654" id="am"/><path fill="#fff" d="M158 418v-1536h174v179h20c37-59 106-193 324-193 279 0 474 222 474 576 0 356-194 580-473 580-213 0-288-135-325-197h-14v591H158zm492-555c209 0 317-186 317-421 0-232-105-413-317-413-206 0-314 166-314 413 0 249 111 421 314 421" id="an"/><path fill="#fff" d="M538 24C308 24 148-78 108-271l171-41c32 123 123 178 257 178 156 0 256-77 256-169 0-77-54-128-164-154l-186-44c-203-48-300-148-300-305 0-192 176-326 414-326 230 0 351 112 402 269l-163 42c-31-80-94-158-238-158-133 0-233 69-233 162 0 83 57 129 188 160l169 40c203 48 298 149 298 302 0 196-179 339-441 339" id="ao"/><g id="d"><use transform="matrix(0.008173828125000001,0,0,0.008173828125000001,0,0)" xlink:href="#ai"/><use transform="matrix(0.008173828125000001,0,0,0.008173828125000001,14.663847656250002,0)" xlink:href="#aj"/><use transform="matrix(0.008173828125000001,0,0,0.008173828125000001,24.562353515625006,0)" xlink:href="#ak"/><use transform="matrix(0.008173828125000001,0,0,0.008173828125000001,28.861787109375005,0)" xlink:href="#Z"/><use transform="matrix(0.008173828125000001,0,0,0.008173828125000001,34.338251953125,0)" xlink:href="#al"/><use transform="matrix(0.008173828125000001,0,0,0.008173828125000001,38.392470703125,0)" xlink:href="#am"/><use transform="matrix(0.008173828125000001,0,0,0.008173828125000001,46.092216796875,0)" xlink:href="#ab"/><use transform="matrix(0.008173828125000001,0,0,0.008173828125000001,55.655595703125,0)" xlink:href="#aa"/><use transform="matrix(0.008173828125000001,0,0,0.008173828125000001,65.693056640625,0)" xlink:href="#ai"/><use transform="matrix(0.008173828125000001,0,0,0.008173828125000001,80.356904296875,0)" xlink:href="#an"/><use transform="matrix(0.008173828125000001,0,0,0.008173828125000001,90.77036132812499,0)" xlink:href="#ae"/><use transform="matrix(0.008173828125000001,0,0,0.008173828125000001,100.17026367187499,0)" xlink:href="#af"/><use transform="matrix(0.008173828125000001,0,0,0.008173828125000001,110.06059570312499,0)" xlink:href="#al"/><use transform="matrix(0.008173828125000001,0,0,0.008173828125000001,114.11481445312499,0)" xlink:href="#ah"/><use transform="matrix(0.008173828125000001,0,0,0.008173828125000001,123.87436523437499,0)" xlink:href="#ao"/></g><use transform="matrix(0.008173828125000001,0,0,0.008173828125000001,0,0)" xlink:href="#am" id="e"/><path fill="#fff" d="M157-1118h181V80c1 225-123 350-364 338V252c126 9 184-48 183-172v-1198zm91-183c-68 0-125-53-125-119s57-119 125-119c69 0 126 53 126 119s-57 119-126 119" id="ap"/><g id="f"><use transform="matrix(0.008173828125000001,0,0,0.008173828125000001,0,0)" xlink:href="#T"/><use transform="matrix(0.008173828125000001,0,0,0.008173828125000001,12.08091796875,0)" xlink:href="#ap"/><use transform="matrix(0.008173828125000001,0,0,0.008173828125000001,16.13513671875,0)" xlink:href="#ae"/><use transform="matrix(0.008173828125000001,0,0,0.008173828125000001,25.535039062500005,0)" xlink:href="#af"/><use transform="matrix(0.008173828125000001,0,0,0.008173828125000001,35.42537109375,0)" xlink:href="#ag"/><use transform="matrix(0.008173828125000001,0,0,0.008173828125000001,45.69169921875,0)" xlink:href="#aa"/></g><path fill="#fff" d="M458 0L52-1490h194c108 439 233 855 324 1313 92-459 221-873 331-1313h216c110 438 234 854 330 1307 92-455 216-869 323-1307h196L1558 0h-221l-256-944c-26-95-50-200-73-331-22 122-44 223-73 331L680 0H458" id="aq"/><path fill="#fff" d="M677 24c-213 0-288-135-325-197h-20V0H158v-1490h180v551h14c37-59 106-193 324-193 279 0 474 222 474 576 0 356-194 580-473 580zm-27-161c209 0 317-186 317-421 0-232-105-413-317-413-206 0-314 166-314 413 0 249 111 421 314 421" id="ar"/><g id="g"><use transform="matrix(0.008173828125000001,0,0,0.008173828125000001,0,0)" xlink:href="#aq"/><use transform="matrix(0.008173828125000001,0,0,0.008173828125000001,15.644707031250004,0)" xlink:href="#ah"/><use transform="matrix(0.008173828125000001,0,0,0.008173828125000001,25.404257812500006,0)" xlink:href="#ar"/></g><g id="h"><use transform="matrix(0.008173828125000001,0,0,0.008173828125000001,0,0)" xlink:href="#U"/><use transform="matrix(0.008173828125000001,0,0,0.008173828125000001,11.549619140625001,0)" xlink:href="#an"/><use transform="matrix(0.008173828125000001,0,0,0.008173828125000001,21.799599609375,0)" xlink:href="#an"/></g><path d="M537 14c-226 0-379-139-379-422v-710h180v695c0 172 97 275 253 275 160 0 281-109 281-300v-670h181V0H879v-209C806-46 684 14 537 14" id="as"/><path d="M538 24C308 24 148-78 108-271l171-41c32 123 123 178 257 178 156 0 256-77 256-169 0-77-54-128-164-154l-186-44c-203-48-300-148-300-305 0-192 176-326 414-326 230 0 351 112 402 269l-163 42c-31-80-94-158-238-158-133 0-233 69-233 162 0 83 57 129 188 160l169 40c203 48 298 149 298 302 0 196-179 339-441 339" id="at"/><path d="M628 24c-324 0-524-230-524-574 0-343 198-582 503-582 237 0 487 146 487 559v75H286c9 234 145 362 343 362 132 0 231-58 273-172l174 48C1024-91 857 24 628 24zM287-650h624c-17-190-120-322-304-322-192 0-309 151-320 322" id="au"/><path d="M158 0v-1118h174v172h12c41-113 157-188 290-188 26 0 70 2 91 3v181c-11-2-60-10-108-10-161 0-279 109-279 260V0H158" id="av"/><path d="M934 0v166H0V0h934" id="aw"/><path d="M613 24c-304 0-509-231-509-576 0-350 205-580 509-580 305 0 511 230 511 580 0 345-206 576-511 576zm0-161c226 0 329-195 329-415 0-222-103-419-329-419-223 0-326 196-326 419 0 220 103 415 326 415" id="ax"/><path d="M338-1490V0H158v-1490h180" id="ay"/><g id="i"><use transform="matrix(0.010850694444444444,0,0,0.010850694444444444,0,0)" xlink:href="#as"/><use transform="matrix(0.010850694444444444,0,0,0.010850694444444444,13.140190972222221,0)" xlink:href="#at"/><use transform="matrix(0.010850694444444444,0,0,0.010850694444444444,24.869791666666664,0)" xlink:href="#au"/><use transform="matrix(0.010850694444444444,0,0,0.010850694444444444,37.82552083333333,0)" xlink:href="#av"/><use transform="matrix(0.010850694444444444,0,0,0.010850694444444444,46.191406249999986,0)" xlink:href="#at"/><use transform="matrix(0.010850694444444444,0,0,0.010850694444444444,57.921006944444436,0)" xlink:href="#aw"/><use transform="matrix(0.010850694444444444,0,0,0.010850694444444444,68.05555555555554,0)" xlink:href="#as"/><use transform="matrix(0.010850694444444444,0,0,0.010850694444444444,81.19574652777777,0)" xlink:href="#at"/><use transform="matrix(0.010850694444444444,0,0,0.010850694444444444,92.92534722222221,0)" xlink:href="#au"/><use transform="matrix(0.010850694444444444,0,0,0.010850694444444444,105.88107638888889,0)" xlink:href="#av"/><use transform="matrix(0.010850694444444444,0,0,0.010850694444444444,114.5941840277778,0)" xlink:href="#av"/><use transform="matrix(0.010850694444444444,0,0,0.010850694444444444,122.59114583333334,0)" xlink:href="#ax"/><use transform="matrix(0.010850694444444444,0,0,0.010850694444444444,135.91579861111111,0)" xlink:href="#ay"/><use transform="matrix(0.010850694444444444,0,0,0.010850694444444444,141.29774305555557,0)" xlink:href="#au"/></g><path d="M180 0v-1490h510c348 0 508 209 508 474 0 266-160 477-507 477H370V0H180zm190-706h312c236 0 327-133 327-310 0-176-91-307-329-307H370v617" id="az"/><path d="M784 20c-382 0-662-292-662-764 0-473 280-766 662-766s660 293 660 766c0 472-278 764-660 764zm0-176c266 0 475-207 475-588 0-383-209-590-475-590-268 0-477 208-477 590 0 380 209 588 477 588" id="aA"/><path d="M783 20c-382 0-661-292-661-764 0-473 279-766 661-766 302 0 548 182 601 489h-190c-42-204-217-313-411-313-268 0-476 208-476 590 0 381 209 588 476 588 195 0 369-110 411-313h190c-52 303-296 489-601 489" id="aB"/><g id="j"><use transform="matrix(0.008173828125000001,0,0,0.008173828125000001,0,0)" xlink:href="#az"/><use transform="matrix(0.008173828125000001,0,0,0.008173828125000001,10.691367187500001,0)" xlink:href="#aA"/><use transform="matrix(0.008173828125000001,0,0,0.008173828125000001,23.491582031250005,0)" xlink:href="#aB"/></g><path d="M158 0v-1118h180V0H158zm91-1301c-68 0-125-53-125-119s57-119 125-119c69 0 126 53 126 119s-57 119-126 119" id="aC"/><path d="M577 24c-279 0-473-224-473-580 0-354 195-576 474-576 218 0 287 134 324 193h14v-551h180V0H922v-173h-20C865-111 790 24 577 24zm27-161c203 0 314-172 314-421 0-247-108-413-314-413-212 0-317 181-317 413 0 235 108 421 317 421" id="aD"/><g id="k"><use transform="matrix(0.010850694444444444,0,0,0.010850694444444444,0,0)" xlink:href="#aC"/><use transform="matrix(0.010850694444444444,0,0,0.010850694444444444,5.381944444444445,0)" xlink:href="#aD"/></g><path d="M180 0v-1490h190c0 262 1 526-3 784 217-279 467-523 702-784h249L716-845 1319 0h-225L585-716 370-489V0H180" id="aE"/><g id="l"><use transform="matrix(0.010850694444444444,0,0,0.010850694444444444,0,0)" xlink:href="#az"/><use transform="matrix(0.010850694444444444,0,0,0.010850694444444444,14.192708333333332,0)" xlink:href="#aE"/></g><path d="M677 24c-213 0-288-135-325-197h-20V0H158v-1490h180v551h14c37-59 106-193 324-193 279 0 474 222 474 576 0 356-194 580-473 580zm-27-161c209 0 317-186 317-421 0-232-105-413-317-413-206 0-314 166-314 413 0 249 111 421 314 421" id="aF"/><path d="M611 442c-248 0-391-105-460-228l146-94c47 65 117 165 314 165 178 0 307-82 307-266v-224h-17C863-141 792-18 576-18c-268 0-472-195-472-546 0-346 197-568 476-568 216 0 288 133 326 193h17v-179h175V29c0 289-215 413-487 413zm-5-620c203 0 314-146 314-390 0-237-108-403-314-403-213 0-319 180-319 403 0 230 109 390 319 390" id="aG"/><path d="M338-670V0H158v-1118h173l1 207c72-158 192-221 342-221 226 0 378 139 378 422V0H872v-695c0-172-96-275-252-275-161 0-282 109-282 300" id="aH"/><path d="M598-1118v154H368v674c0 100 37 144 132 144 23 0 62-6 92-12L629-6c-37 13-88 20-134 20-193 0-307-107-307-290v-688H20v-154h168v-266h180v266h230" id="aI"/><g id="m"><use transform="matrix(0.010850694444444444,0,0,0.010850694444444444,0,0)" xlink:href="#aF"/><use transform="matrix(0.010850694444444444,0,0,0.010850694444444444,13.606770833333332,0)" xlink:href="#aC"/><use transform="matrix(0.010850694444444444,0,0,0.010850694444444444,18.98871527777778,0)" xlink:href="#aG"/><use transform="matrix(0.010850694444444444,0,0,0.010850694444444444,32.6171875,0)" xlink:href="#aC"/><use transform="matrix(0.010850694444444444,0,0,0.010850694444444444,37.99913194444444,0)" xlink:href="#aH"/><use transform="matrix(0.010850694444444444,0,0,0.010850694444444444,51.12847222222222,0)" xlink:href="#aI"/></g><path d="M52 0l541-1490h220L1361 0h-200l-149-416H398L254 0H52zm404-582h497c-103-290-145-390-251-756-108 377-145 460-246 756" id="aJ"/><path d="M763 24c-353 0-583-224-583-531v-983h190v968c0 214 149 370 393 370 243 0 391-156 391-370v-968h190v983c0 307-230 531-581 531" id="aK"/><path d="M98-1322v-168h1126v168H757V0H567v-1322H98" id="aL"/><g id="n"><use transform="matrix(0.010850694444444444,0,0,0.010850694444444444,0,0)" xlink:href="#aJ"/><use transform="matrix(0.010850694444444444,0,0,0.010850694444444444,14.898003472222221,0)" xlink:href="#aK"/><use transform="matrix(0.010850694444444444,0,0,0.010850694444444444,31.434461805555554,0)" xlink:href="#aL"/><use transform="matrix(0.010850694444444444,0,0,0.010850694444444444,45.1171875,0)" xlink:href="#aA"/></g><g id="o"><use transform="matrix(0.010850694444444444,0,0,0.010850694444444444,0,0)" xlink:href="#as"/><use transform="matrix(0.010850694444444444,0,0,0.010850694444444444,13.140190972222221,0)" xlink:href="#at"/><use transform="matrix(0.010850694444444444,0,0,0.010850694444444444,24.869791666666664,0)" xlink:href="#au"/><use transform="matrix(0.010850694444444444,0,0,0.010850694444444444,37.82552083333333,0)" xlink:href="#av"/><use transform="matrix(0.010850694444444444,0,0,0.010850694444444444,46.191406249999986,0)" xlink:href="#aw"/><use transform="matrix(0.010850694444444444,0,0,0.010850694444444444,57.07465277777778,0)" xlink:href="#aC"/><use transform="matrix(0.010850694444444444,0,0,0.010850694444444444,62.45659722222221,0)" xlink:href="#aD"/><path d="M-1.1 4.54h78.28v1.52h-78.3z"/></g><path d="M180 0v-1490h901v168H370v510h643v168H370V0H180" id="aM"/><g id="p"><use transform="matrix(0.010850694444444444,0,0,0.010850694444444444,0,0)" xlink:href="#aM"/><use transform="matrix(0.010850694444444444,0,0,0.010850694444444444,13.118489583333332,0)" xlink:href="#aE"/></g><g id="q"><use transform="matrix(0.010850694444444444,0,0,0.010850694444444444,0,0)" xlink:href="#aF"/><use transform="matrix(0.010850694444444444,0,0,0.010850694444444444,13.606770833333332,0)" xlink:href="#aC"/><use transform="matrix(0.010850694444444444,0,0,0.010850694444444444,18.98871527777778,0)" xlink:href="#aG"/><use transform="matrix(0.010850694444444444,0,0,0.010850694444444444,32.6171875,0)" xlink:href="#aC"/><use transform="matrix(0.010850694444444444,0,0,0.010850694444444444,37.99913194444444,0)" xlink:href="#aH"/><use transform="matrix(0.010850694444444444,0,0,0.010850694444444444,51.12847222222222,0)" xlink:href="#aI"/></g><g id="r"><use transform="matrix(0.010850694444444444,0,0,0.010850694444444444,0,0)" xlink:href="#av"/><use transform="matrix(0.010850694444444444,0,0,0.010850694444444444,7.996961805555555,0)" xlink:href="#ax"/><use transform="matrix(0.010850694444444444,0,0,0.010850694444444444,21.321614583333332,0)" xlink:href="#ay"/><use transform="matrix(0.010850694444444444,0,0,0.010850694444444444,26.70355902777778,0)" xlink:href="#au"/><use transform="matrix(0.010850694444444444,0,0,0.010850694444444444,39.65928819444444,0)" xlink:href="#aw"/><use transform="matrix(0.010850694444444444,0,0,0.010850694444444444,50.54253472222221,0)" xlink:href="#aC"/><use transform="matrix(0.010850694444444444,0,0,0.010850694444444444,55.92447916666666,0)" xlink:href="#aD"/><path d="M-1.1 4.54h71.74v1.52H-1.1z"/></g><path d="M613 24c-304 0-509-231-509-576 0-350 205-580 509-580 216 0 392 114 453 309l-173 49c-33-115-133-197-280-197-223 0-326 196-326 419 0 220 103 415 326 415 150 0 252-85 285-206l172 49C1010-95 832 24 613 24" id="aN"/><path d="M158 0v-1118h175l1 205c55-151 181-225 313-225 147 0 245 90 285 228 53-141 190-228 352-228 194 0 352 125 352 384V0h-181v-749c0-161-105-225-225-225-151 0-243 103-243 244V0H807v-767c0-124-93-207-219-207-131 0-250 92-250 270V0H158" id="aO"/><path d="M158 418v-1536h174v179h20c37-59 106-193 324-193 279 0 474 222 474 576 0 356-194 580-473 580-213 0-288-135-325-197h-14v591H158zm492-555c209 0 317-186 317-421 0-232-105-413-317-413-206 0-314 166-314 413 0 249 111 421 314 421" id="aP"/><path d="M471 26C259 26 90-98 90-318c0-256 228-303 435-329 202-27 287-16 287-108 0-139-79-219-234-219-161 0-248 86-283 164l-173-57c86-203 278-265 451-265 150 0 419 46 419 395V0H815v-152h-12C765-73 660 26 471 26zm31-159c199 0 310-134 310-271v-155c-30 35-226 55-295 64-131 17-246 59-246 186 0 116 97 176 231 176" id="aQ"/><path d="M140 405l46-156c120 36 205 19 263-150l32-93L54-1118h197c107 313 237 620 324 950 87-331 219-637 326-950h196L606 167c-68 178-176 259-334 259-64 0-113-12-132-21" id="aR"/><g id="s"><use transform="matrix(0.010850694444444444,0,0,0.010850694444444444,0,0)" xlink:href="#aN"/><use transform="matrix(0.010850694444444444,0,0,0.010850694444444444,12.6953125,0)" xlink:href="#ax"/><use transform="matrix(0.010850694444444444,0,0,0.010850694444444444,26.01996527777778,0)" xlink:href="#aO"/><use transform="matrix(0.010850694444444444,0,0,0.010850694444444444,45.48611111111111,0)" xlink:href="#aP"/><use transform="matrix(0.010850694444444444,0,0,0.010850694444444444,59.30989583333333,0)" xlink:href="#aQ"/><use transform="matrix(0.010850694444444444,0,0,0.010850694444444444,71.78819444444444,0)" xlink:href="#aH"/><use transform="matrix(0.010850694444444444,0,0,0.010850694444444444,84.59201388888889,0)" xlink:href="#aR"/><use transform="matrix(0.010850694444444444,0,0,0.010850694444444444,95.32335069444444,0)" xlink:href="#aw"/><use transform="matrix(0.010850694444444444,0,0,0.010850694444444444,106.20659722222224,0)" xlink:href="#aC"/><use transform="matrix(0.010850694444444444,0,0,0.010850694444444444,111.58854166666666,0)" xlink:href="#aD"/><path d="M-1.1 4.54h127.4v1.52H-1.1z"/></g><path d="M180 0v-1490h224l606 953c40 63 108 177 176 312-27-437-7-821-13-1265h190V0h-226C860-448 622-778 356-1262c27 476 11 792 15 1262H180" id="aS"/><path d="M180 0v-1490h190v1322h690V0H180" id="aT"/><path d="M180 0v-1490h528c311 0 458 177 458 395 0 191-114 278-244 313v14c139 9 302 137 302 371 0 225-148 397-499 397H180zm190-168h350c232 0 321-102 321-231 0-149-120-277-311-277H370v508zm0-668h328c160 0 286-101 286-255 0-129-87-231-280-231H370v486" id="aU"/><path d="M180 0v-1490h908v168H370v486h669v168H370v500h727V0H180" id="aV"/><g id="t"><use transform="matrix(0.010850694444444444,0,0,0.010850694444444444,0,0)" xlink:href="#aS"/><use transform="matrix(0.010850694444444444,0,0,0.010850694444444444,16.74262152777778,0)" xlink:href="#aK"/><use transform="matrix(0.010850694444444444,0,0,0.010850694444444444,33.279079861111114,0)" xlink:href="#aT"/><use transform="matrix(0.010850694444444444,0,0,0.010850694444444444,45.84418402777778,0)" xlink:href="#aT"/><use transform="matrix(0.010850694444444444,0,0,0.010850694444444444,58.40928819444444,0)" xlink:href="#aJ"/><use transform="matrix(0.010850694444444444,0,0,0.010850694444444444,73.74131944444444,0)" xlink:href="#aU"/><use transform="matrix(0.010850694444444444,0,0,0.010850694444444444,88.28125,0)" xlink:href="#aT"/><use transform="matrix(0.010850694444444444,0,0,0.010850694444444444,100.84635416666666,0)" xlink:href="#aV"/></g><path d="M226-283v-166h904v166H226zm0-434v-166h904v166H226" id="aW"/><g id="u"><use transform="matrix(0.010850694444444444,0,0,0.010850694444444444,0,0)" xlink:href="#aD"/><use transform="matrix(0.010850694444444444,0,0,0.010850694444444444,13.606770833333332,0)" xlink:href="#aW"/><use transform="matrix(0.010850694444444444,0,0,0.010850694444444444,28.309461805555554,0)" xlink:href="#aS"/><use transform="matrix(0.010850694444444444,0,0,0.010850694444444444,45.05208333333333,0)" xlink:href="#aK"/><use transform="matrix(0.010850694444444444,0,0,0.010850694444444444,61.58854166666666,0)" xlink:href="#aT"/><use transform="matrix(0.010850694444444444,0,0,0.010850694444444444,74.15364583333333,0)" xlink:href="#aT"/></g><g id="v"><use transform="matrix(0.010850694444444444,0,0,0.010850694444444444,0,0)" xlink:href="#ay"/><use transform="matrix(0.010850694444444444,0,0,0.010850694444444444,5.381944444444445,0)" xlink:href="#ax"/><use transform="matrix(0.010850694444444444,0,0,0.010850694444444444,18.70659722222222,0)" xlink:href="#aN"/><use transform="matrix(0.010850694444444444,0,0,0.010850694444444444,31.61892361111111,0)" xlink:href="#aQ"/><use transform="matrix(0.010850694444444444,0,0,0.010850694444444444,44.09722222222222,0)" xlink:href="#aI"/><use transform="matrix(0.010850694444444444,0,0,0.010850694444444444,51.3671875,0)" xlink:href="#aC"/><use transform="matrix(0.010850694444444444,0,0,0.010850694444444444,56.74913194444444,0)" xlink:href="#ax"/><use transform="matrix(0.010850694444444444,0,0,0.010850694444444444,70.07378472222221,0)" xlink:href="#aH"/><use transform="matrix(0.010850694444444444,0,0,0.010850694444444444,83.20312499999999,0)" xlink:href="#aw"/><use transform="matrix(0.010850694444444444,0,0,0.010850694444444444,94.08637152777777,0)" xlink:href="#aC"/><use transform="matrix(0.010850694444444444,0,0,0.010850694444444444,99.46831597222221,0)" xlink:href="#aD"/><path d="M-1.1 4.54h115.3v1.52H-1.1z"/></g><path d="M481 0L54-1118h197c107 314 236 620 325 951 87-331 217-637 324-951h197L670 0H481" id="aX"/><g id="w"><use transform="matrix(0.010850694444444444,0,0,0.010850694444444444,0,0)" xlink:href="#aC"/><use transform="matrix(0.010850694444444444,0,0,0.010850694444444444,5.381944444444445,0)" xlink:href="#at"/><use transform="matrix(0.010850694444444444,0,0,0.010850694444444444,17.11154513888889,0)" xlink:href="#aw"/><use transform="matrix(0.010850694444444444,0,0,0.010850694444444444,27.24609375,0)" xlink:href="#aQ"/><use transform="matrix(0.010850694444444444,0,0,0.010850694444444444,39.724392361111114,0)" xlink:href="#aN"/><use transform="matrix(0.010850694444444444,0,0,0.010850694444444444,52.41970486111112,0)" xlink:href="#aI"/><use transform="matrix(0.010850694444444444,0,0,0.010850694444444444,59.6896701388889,0)" xlink:href="#aC"/><use transform="matrix(0.010850694444444444,0,0,0.010850694444444444,65.07161458333334,0)" xlink:href="#aX"/><use transform="matrix(0.010850694444444444,0,0,0.010850694444444444,77.12673611111113,0)" xlink:href="#au"/></g><g id="x"><use transform="matrix(0.010850694444444444,0,0,0.010850694444444444,0,0)" xlink:href="#aI"/><use transform="matrix(0.010850694444444444,0,0,0.010850694444444444,7.269965277777778,0)" xlink:href="#aC"/><use transform="matrix(0.010850694444444444,0,0,0.010850694444444444,12.651909722222221,0)" xlink:href="#aH"/><use transform="matrix(0.010850694444444444,0,0,0.010850694444444444,25.455729166666664,0)" xlink:href="#aR"/><use transform="matrix(0.010850694444444444,0,0,0.010850694444444444,37.94487847222222,0)" xlink:href="#aC"/><use transform="matrix(0.010850694444444444,0,0,0.010850694444444444,43.326822916666664,0)" xlink:href="#aH"/><use transform="matrix(0.010850694444444444,0,0,0.010850694444444444,56.45616319444444,0)" xlink:href="#aI"/></g><g id="y"><use transform="matrix(0.010850694444444444,0,0,0.010850694444444444,0,0)" xlink:href="#aD"/><use transform="matrix(0.010850694444444444,0,0,0.010850694444444444,13.606770833333332,0)" xlink:href="#aW"/><use transform="matrix(0.010850694444444444,0,0,0.010850694444444444,27.30034722222222,0)" xlink:href="#aL"/><use transform="matrix(0.010850694444444444,0,0,0.010850694444444444,40.38628472222222,0)" xlink:href="#av"/><use transform="matrix(0.010850694444444444,0,0,0.010850694444444444,48.752170138888886,0)" xlink:href="#as"/><use transform="matrix(0.010850694444444444,0,0,0.010850694444444444,61.89236111111111,0)" xlink:href="#au"/></g><g id="z"><use transform="matrix(0.010850694444444444,0,0,0.010850694444444444,0,0)" xlink:href="#as"/><use transform="matrix(0.010850694444444444,0,0,0.010850694444444444,13.140190972222221,0)" xlink:href="#at"/><use transform="matrix(0.010850694444444444,0,0,0.010850694444444444,24.869791666666664,0)" xlink:href="#au"/><use transform="matrix(0.010850694444444444,0,0,0.010850694444444444,37.82552083333333,0)" xlink:href="#av"/><use transform="matrix(0.010850694444444444,0,0,0.010850694444444444,46.191406249999986,0)" xlink:href="#at"/><use transform="matrix(0.010850694444444444,0,0,0.010850694444444444,57.921006944444436,0)" xlink:href="#aw"/><use transform="matrix(0.010850694444444444,0,0,0.010850694444444444,68.05555555555554,0)" xlink:href="#as"/><use transform="matrix(0.010850694444444444,0,0,0.010850694444444444,81.19574652777777,0)" xlink:href="#at"/><use transform="matrix(0.010850694444444444,0,0,0.010850694444444444,92.92534722222221,0)" xlink:href="#au"/><use transform="matrix(0.010850694444444444,0,0,0.010850694444444444,105.88107638888889,0)" xlink:href="#av"/><use transform="matrix(0.010850694444444444,0,0,0.010850694444444444,114.5941840277778,0)" xlink:href="#av"/><use transform="matrix(0.010850694444444444,0,0,0.010850694444444444,122.59114583333334,0)" xlink:href="#ax"/><use transform="matrix(0.010850694444444444,0,0,0.010850694444444444,135.91579861111111,0)" xlink:href="#ay"/><use transform="matrix(0.010850694444444444,0,0,0.010850694444444444,141.29774305555557,0)" xlink:href="#au"/><use transform="matrix(0.010850694444444444,0,0,0.010850694444444444,154.25347222222223,0)" xlink:href="#ay"/><use transform="matrix(0.010850694444444444,0,0,0.010850694444444444,159.63541666666669,0)" xlink:href="#ax"/><use transform="matrix(0.010850694444444444,0,0,0.010850694444444444,172.96006944444446,0)" xlink:href="#aG"/></g><path d="M180 0v-1490h270l367 940c28 72 75 218 110 339 35-117 81-264 110-339l362-940h271V0h-187c2-448-5-837 7-1287-157 497-311 829-483 1287H842C666-458 514-784 354-1284c12 438 5 843 7 1284H180" id="aY"/><path d="M600 0L52-1490h200c166 485 304 806 458 1336 156-533 285-846 449-1336h202L819 0H600" id="aZ"/><g id="A"><use transform="matrix(0.008173828125000001,0,0,0.008173828125000001,0,0)" xlink:href="#aY"/><use transform="matrix(0.008173828125000001,0,0,0.008173828125000001,15.121582031250002,0)" xlink:href="#aZ"/><use transform="matrix(0.008173828125000001,0,0,0.008173828125000001,26.671201171875005,0)" xlink:href="#az"/></g><g id="B"><use transform="matrix(0.010850694444444444,0,0,0.010850694444444444,0,0)" xlink:href="#as"/><use transform="matrix(0.010850694444444444,0,0,0.010850694444444444,13.140190972222221,0)" xlink:href="#as"/><use transform="matrix(0.010850694444444444,0,0,0.010850694444444444,26.280381944444443,0)" xlink:href="#aC"/><use transform="matrix(0.010850694444444444,0,0,0.010850694444444444,31.66232638888889,0)" xlink:href="#aD"/><path d="M-1.1 4.54h47.48v1.52h-47.5z"/></g><path d="M370-1490V0H180v-1490h190" id="ba"/><path d="M645 0H180v-1490h484c435 0 692 280 692 742 0 466-257 748-711 748zM370-168h263c363 0 539-218 539-580 0-358-176-574-521-574H370v1154" id="bb"/><g id="C"><use transform="matrix(0.010850694444444444,0,0,0.010850694444444444,0,0)" xlink:href="#aK"/><use transform="matrix(0.010850694444444444,0,0,0.010850694444444444,16.536458333333332,0)" xlink:href="#aK"/><use transform="matrix(0.010850694444444444,0,0,0.010850694444444444,33.072916666666664,0)" xlink:href="#ba"/><use transform="matrix(0.010850694444444444,0,0,0.010850694444444444,39.04079861111111,0)" xlink:href="#bb"/><use transform="matrix(0.010850694444444444,0,0,0.010850694444444444,55.078125,0)" xlink:href="#aM"/><use transform="matrix(0.010850694444444444,0,0,0.010850694444444444,68.19661458333333,0)" xlink:href="#aC"/><use transform="matrix(0.010850694444444444,0,0,0.010850694444444444,73.57855902777777,0)" xlink:href="#au"/><use transform="matrix(0.010850694444444444,0,0,0.010850694444444444,86.53428819444444,0)" xlink:href="#ay"/><use transform="matrix(0.010850694444444444,0,0,0.010850694444444444,91.91623263888889,0)" xlink:href="#aD"/></g><g id="D"><use transform="matrix(0.010850694444444444,0,0,0.010850694444444444,0,0)" xlink:href="#as"/><use transform="matrix(0.010850694444444444,0,0,0.010850694444444444,13.140190972222221,0)" xlink:href="#at"/><use transform="matrix(0.010850694444444444,0,0,0.010850694444444444,24.869791666666664,0)" xlink:href="#au"/><use transform="matrix(0.010850694444444444,0,0,0.010850694444444444,37.82552083333333,0)" xlink:href="#av"/><use transform="matrix(0.010850694444444444,0,0,0.010850694444444444,46.191406249999986,0)" xlink:href="#aw"/><use transform="matrix(0.010850694444444444,0,0,0.010850694444444444,57.07465277777778,0)" xlink:href="#av"/><use transform="matrix(0.010850694444444444,0,0,0.010850694444444444,65.07161458333333,0)" xlink:href="#ax"/><use transform="matrix(0.010850694444444444,0,0,0.010850694444444444,78.3962673611111,0)" xlink:href="#ay"/><use transform="matrix(0.010850694444444444,0,0,0.010850694444444444,83.77821180555554,0)" xlink:href="#au"/><use transform="matrix(0.010850694444444444,0,0,0.010850694444444444,96.73394097222221,0)" xlink:href="#aw"/><use transform="matrix(0.010850694444444444,0,0,0.010850694444444444,107.6171875,0)" xlink:href="#aC"/><use transform="matrix(0.010850694444444444,0,0,0.010850694444444444,112.99913194444444,0)" xlink:href="#aD"/></g><g id="E"><use transform="matrix(0.010850694444444444,0,0,0.010850694444444444,0,0)" xlink:href="#as"/><use transform="matrix(0.010850694444444444,0,0,0.010850694444444444,13.140190972222221,0)" xlink:href="#at"/><use transform="matrix(0.010850694444444444,0,0,0.010850694444444444,24.869791666666664,0)" xlink:href="#au"/><use transform="matrix(0.010850694444444444,0,0,0.010850694444444444,37.82552083333333,0)" xlink:href="#av"/><use transform="matrix(0.010850694444444444,0,0,0.010850694444444444,46.191406249999986,0)" xlink:href="#aw"/><use transform="matrix(0.010850694444444444,0,0,0.010850694444444444,57.07465277777778,0)" xlink:href="#aC"/><use transform="matrix(0.010850694444444444,0,0,0.010850694444444444,62.45659722222221,0)" xlink:href="#aD"/></g><path d="M66 0l185-1118h174l-28 172h12c78-136 219-209 411-185l-30 181c-211-47-398 67-428 250L246 0H66" id="bc"/><path d="M528 24C258 24 94-156 94-433c0-355 229-699 603-699 270 0 436 178 436 458 0 359-234 698-605 698zm4-161c275 0 420-287 420-533 0-170-77-301-260-301-271 0-418 288-418 536 0 168 77 298 258 298" id="bd"/><path d="M492-1490L245 0H65l247-1490h180" id="be"/><path d="M535 24C259 24 94-144 94-427c0-392 272-715 610-715 216 0 356 119 356 305 0 244-237 344-790 350-18 199 49 349 276 352 142 0 260-66 317-173l167 47C947-85 756 24 535 24zM294-623c447-4 586-57 586-218 0-85-78-141-194-141-220 0-342 177-392 359" id="bf"/><path d="M841 0l-27 166h-934L-93 0h934" id="bg"/><path d="M66 0l185-1118h180L246 0H66zm307-1301c-71 0-117-55-106-119s74-119 145-119c65 0 117 50 106 118s-78 120-145 120" id="bh"/><path d="M492 24C248 24 94-147 94-425c0-352 212-707 569-707 222 0 274 136 303 198h12l92-556h181L1004 0H829l30-173h-19C792-103 700 24 492 24zm32-161c268 0 407-295 407-549 0-175-80-285-247-285-266 0-408 283-408 536 0 174 79 298 248 298" id="bi"/><g id="F"><use transform="matrix(0.010850694444444444,0,0,0.010850694444444444,0,0)" xlink:href="#bc"/><use transform="matrix(0.010850694444444444,0,0,0.010850694444444444,8.0078125,0)" xlink:href="#bd"/><use transform="matrix(0.010850694444444444,0,0,0.010850694444444444,21.34331597222222,0)" xlink:href="#be"/><use transform="matrix(0.010850694444444444,0,0,0.010850694444444444,26.725260416666664,0)" xlink:href="#bf"/><use transform="matrix(0.010850694444444444,0,0,0.010850694444444444,39.518229166666664,0)" xlink:href="#bg"/><use transform="matrix(0.010850694444444444,0,0,0.010850694444444444,50.40147569444444,0)" xlink:href="#bh"/><use transform="matrix(0.010850694444444444,0,0,0.010850694444444444,55.79427083333333,0)" xlink:href="#bi"/></g><g id="G"><use transform="matrix(0.010850694444444444,0,0,0.010850694444444444,0,0)" xlink:href="#aS"/><use transform="matrix(0.010850694444444444,0,0,0.010850694444444444,16.74262152777778,0)" xlink:href="#aK"/><use transform="matrix(0.010850694444444444,0,0,0.010850694444444444,33.279079861111114,0)" xlink:href="#aT"/><use transform="matrix(0.010850694444444444,0,0,0.010850694444444444,45.84418402777778,0)" xlink:href="#aT"/><use transform="matrix(0.010850694444444444,0,0,0.010850694444444444,58.40928819444444,0)" xlink:href="#aJ"/><use transform="matrix(0.010850694444444444,0,0,0.010850694444444444,73.74131944444444,0)" xlink:href="#aU"/><use transform="matrix(0.010850694444444444,0,0,0.010850694444444444,88.28125,0)" xlink:href="#aT"/><use transform="matrix(0.010850694444444444,0,0,0.010850694444444444,100.84635416666666,0)" xlink:href="#aV"/></g><g id="H"><use transform="matrix(0.010850694444444444,0,0,0.010850694444444444,0,0)" xlink:href="#aN"/><use transform="matrix(0.010850694444444444,0,0,0.010850694444444444,12.6953125,0)" xlink:href="#ax"/><use transform="matrix(0.010850694444444444,0,0,0.010850694444444444,26.01996527777778,0)" xlink:href="#aO"/><use transform="matrix(0.010850694444444444,0,0,0.010850694444444444,45.48611111111111,0)" xlink:href="#aP"/><use transform="matrix(0.010850694444444444,0,0,0.010850694444444444,59.30989583333333,0)" xlink:href="#aQ"/><use transform="matrix(0.010850694444444444,0,0,0.010850694444444444,71.78819444444444,0)" xlink:href="#aH"/><use transform="matrix(0.010850694444444444,0,0,0.010850694444444444,84.59201388888889,0)" xlink:href="#aR"/><use transform="matrix(0.010850694444444444,0,0,0.010850694444444444,95.32335069444444,0)" xlink:href="#aw"/><use transform="matrix(0.010850694444444444,0,0,0.010850694444444444,106.20659722222224,0)" xlink:href="#aC"/><use transform="matrix(0.010850694444444444,0,0,0.010850694444444444,111.58854166666666,0)" xlink:href="#aD"/></g><path d="M338-670V0H158v-1490h180v566c73-149 190-208 336-208 226 0 379 139 379 422V0H872v-695c0-172-96-275-252-275-161 0-282 109-282 300" id="bj"/><g id="I"><use transform="matrix(0.010850694444444444,0,0,0.010850694444444444,0,0)" xlink:href="#aN"/><use transform="matrix(0.010850694444444444,0,0,0.010850694444444444,12.6953125,0)" xlink:href="#bj"/><use transform="matrix(0.010850694444444444,0,0,0.010850694444444444,25.83550347222222,0)" xlink:href="#aQ"/><use transform="matrix(0.010850694444444444,0,0,0.010850694444444444,38.31380208333333,0)" xlink:href="#aH"/><use transform="matrix(0.010850694444444444,0,0,0.010850694444444444,51.44314236111111,0)" xlink:href="#aG"/><use transform="matrix(0.010850694444444444,0,0,0.010850694444444444,65.07161458333333,0)" xlink:href="#au"/><use transform="matrix(0.010850694444444444,0,0,0.010850694444444444,78.02734375,0)" xlink:href="#aD"/><use transform="matrix(0.010850694444444444,0,0,0.010850694444444444,91.63411458333333,0)" xlink:href="#aw"/><use transform="matrix(0.010850694444444444,0,0,0.010850694444444444,101.76866319444444,0)" xlink:href="#aQ"/><use transform="matrix(0.010850694444444444,0,0,0.010850694444444444,114.24696180555556,0)" xlink:href="#aI"/></g><g id="J"><use transform="matrix(0.010850694444444444,0,0,0.010850694444444444,0,0)" xlink:href="#aD"/><use transform="matrix(0.010850694444444444,0,0,0.010850694444444444,13.606770833333332,0)" xlink:href="#aQ"/><use transform="matrix(0.010850694444444444,0,0,0.010850694444444444,26.085069444444443,0)" xlink:href="#aI"/><use transform="matrix(0.010850694444444444,0,0,0.010850694444444444,33.13802083333333,0)" xlink:href="#au"/><use transform="matrix(0.010850694444444444,0,0,0.010850694444444444,46.093749999999986,0)" xlink:href="#aI"/><use transform="matrix(0.010850694444444444,0,0,0.010850694444444444,53.36371527777778,0)" xlink:href="#aC"/><use transform="matrix(0.010850694444444444,0,0,0.010850694444444444,58.74565972222221,0)" xlink:href="#aO"/><use transform="matrix(0.010850694444444444,0,0,0.010850694444444444,78.21180555555554,0)" xlink:href="#au"/></g><path d="M458 0L52-1490h194c108 439 233 855 324 1313 92-459 221-873 331-1313h216c110 438 234 854 330 1307 92-455 216-869 323-1307h196L1558 0h-221l-256-944c-26-95-50-200-73-331-22 122-44 223-73 331L680 0H458" id="bk"/><g id="K"><use transform="matrix(0.010850694444444444,0,0,0.010850694444444444,0,0)" xlink:href="#aJ"/><use transform="matrix(0.010850694444444444,0,0,0.010850694444444444,14.898003472222221,0)" xlink:href="#aK"/><use transform="matrix(0.010850694444444444,0,0,0.010850694444444444,31.434461805555554,0)" xlink:href="#aL"/><use transform="matrix(0.010850694444444444,0,0,0.010850694444444444,45.1171875,0)" xlink:href="#aA"/><use transform="matrix(0.010850694444444444,0,0,0.010850694444444444,61.23046875,0)" xlink:href="#aw"/><use transform="matrix(0.010850694444444444,0,0,0.010850694444444444,72.11371527777777,0)" xlink:href="#aS"/><use transform="matrix(0.010850694444444444,0,0,0.010850694444444444,88.85633680555554,0)" xlink:href="#aA"/><use transform="matrix(0.010850694444444444,0,0,0.010850694444444444,105.84852430555556,0)" xlink:href="#bk"/><use transform="matrix(0.010850694444444444,0,0,0.010850694444444444,127.74522569444441,0)" xlink:href="#aw"/><use transform="matrix(0.010850694444444444,0,0,0.010850694444444444,137.87977430555554,0)" xlink:href="#aJ"/><use transform="matrix(0.010850694444444444,0,0,0.010850694444444444,153.21180555555554,0)" xlink:href="#bb"/><use transform="matrix(0.010850694444444444,0,0,0.010850694444444444,169.24913194444443,0)" xlink:href="#bb"/></g><g id="L"><use transform="matrix(0.010850694444444444,0,0,0.010850694444444444,0,0)" xlink:href="#aN"/><use transform="matrix(0.010850694444444444,0,0,0.010850694444444444,12.6953125,0)" xlink:href="#bj"/><use transform="matrix(0.010850694444444444,0,0,0.010850694444444444,25.83550347222222,0)" xlink:href="#aQ"/><use transform="matrix(0.010850694444444444,0,0,0.010850694444444444,38.31380208333333,0)" xlink:href="#aH"/><use transform="matrix(0.010850694444444444,0,0,0.010850694444444444,51.44314236111111,0)" xlink:href="#aG"/><use transform="matrix(0.010850694444444444,0,0,0.010850694444444444,65.07161458333333,0)" xlink:href="#au"/><use transform="matrix(0.010850694444444444,0,0,0.010850694444444444,78.02734375,0)" xlink:href="#aD"/><use transform="matrix(0.010850694444444444,0,0,0.010850694444444444,91.63411458333333,0)" xlink:href="#aw"/><use transform="matrix(0.010850694444444444,0,0,0.010850694444444444,102.51736111111111,0)" xlink:href="#aF"/><use transform="matrix(0.010850694444444444,0,0,0.010850694444444444,115.69010416666666,0)" xlink:href="#aR"/></g><g id="M"><use transform="matrix(0.010850694444444444,0,0,0.010850694444444444,0,0)" xlink:href="#aM"/><use transform="matrix(0.010850694444444444,0,0,0.010850694444444444,13.118489583333332,0)" xlink:href="#aE"/></g><path fill="#6f7681" d="M763 24c-353 0-583-224-583-531v-983h190v968c0 214 149 370 393 370 243 0 391-156 391-370v-968h190v983c0 307-230 531-581 531" id="bl"/><path fill="#6f7681" d="M538 24C308 24 148-78 108-271l171-41c32 123 123 178 257 178 156 0 256-77 256-169 0-77-54-128-164-154l-186-44c-203-48-300-148-300-305 0-192 176-326 414-326 230 0 351 112 402 269l-163 42c-31-80-94-158-238-158-133 0-233 69-233 162 0 83 57 129 188 160l169 40c203 48 298 149 298 302 0 196-179 339-441 339" id="bm"/><path fill="#6f7681" d="M628 24c-324 0-524-230-524-574 0-343 198-582 503-582 237 0 487 146 487 559v75H286c9 234 145 362 343 362 132 0 231-58 273-172l174 48C1024-91 857 24 628 24zM287-650h624c-17-190-120-322-304-322-192 0-309 151-320 322" id="bn"/><path fill="#6f7681" d="M158 0v-1118h174v172h12c41-113 157-188 290-188 26 0 70 2 91 3v181c-11-2-60-10-108-10-161 0-279 109-279 260V0H158" id="bo"/><g id="N"><use transform="matrix(0.010850694444444444,0,0,0.010850694444444444,0,0)" xlink:href="#bl"/><use transform="matrix(0.010850694444444444,0,0,0.010850694444444444,16.536458333333332,0)" xlink:href="#bm"/><use transform="matrix(0.010850694444444444,0,0,0.010850694444444444,28.266059027777775,0)" xlink:href="#bn"/><use transform="matrix(0.010850694444444444,0,0,0.010850694444444444,41.22178819444444,0)" xlink:href="#bo"/></g><g id="O"><use transform="matrix(0.010850694444444444,0,0,0.010850694444444444,0,0)" xlink:href="#aQ"/><use transform="matrix(0.010850694444444444,0,0,0.010850694444444444,12.47829861111111,0)" xlink:href="#aN"/><use transform="matrix(0.010850694444444444,0,0,0.010850694444444444,25.17361111111111,0)" xlink:href="#aI"/><use transform="matrix(0.010850694444444444,0,0,0.010850694444444444,32.443576388888886,0)" xlink:href="#aC"/><use transform="matrix(0.010850694444444444,0,0,0.010850694444444444,37.82552083333333,0)" xlink:href="#ax"/><use transform="matrix(0.010850694444444444,0,0,0.010850694444444444,51.15017361111111,0)" xlink:href="#aH"/></g><g id="P"><use transform="matrix(0.010850694444444444,0,0,0.010850694444444444,0,0)" xlink:href="#au"/><use transform="matrix(0.010850694444444444,0,0,0.010850694444444444,12.955729166666666,0)" xlink:href="#aH"/><use transform="matrix(0.010850694444444444,0,0,0.010850694444444444,26.085069444444443,0)" xlink:href="#as"/><use transform="matrix(0.010850694444444444,0,0,0.010850694444444444,39.225260416666664,0)" xlink:href="#aO"/></g><path d="M678-1118v154H420V0H240v-964H20v-154h220v-149c0-194 155-293 318-293 85 0 141 18 168 30l-50 154c-19-6-47-17-97-17-111 0-159 58-159 166v109h258" id="bp"/><g id="Q"><use transform="matrix(0.010850694444444444,0,0,0.010850694444444444,0,0)" xlink:href="#at"/><use transform="matrix(0.010850694444444444,0,0,0.010850694444444444,11.729600694444445,0)" xlink:href="#aH"/><use transform="matrix(0.010850694444444444,0,0,0.010850694444444444,24.85894097222222,0)" xlink:href="#aQ"/><use transform="matrix(0.010850694444444444,0,0,0.010850694444444444,37.33723958333333,0)" xlink:href="#aP"/><use transform="matrix(0.010850694444444444,0,0,0.010850694444444444,50.94401041666666,0)" xlink:href="#aw"/><use transform="matrix(0.010850694444444444,0,0,0.010850694444444444,61.827256944444436,0)" xlink:href="#aC"/><use transform="matrix(0.010850694444444444,0,0,0.010850694444444444,67.20920138888887,0)" xlink:href="#aH"/><use transform="matrix(0.010850694444444444,0,0,0.010850694444444444,80.33854166666664,0)" xlink:href="#bp"/><use transform="matrix(0.010850694444444444,0,0,0.010850694444444444,87.91232638888886,0)" xlink:href="#ax"/><use transform="matrix(0.010850694444444444,0,0,0.010850694444444444,101.23697916666663,0)" xlink:href="#at"/></g><path d="M545 20c-263 0-445-160-445-446v-80h190v80c0 182 102 279 255 279 152 0 254-97 254-279v-1064h190v1064c0 286-181 446-444 446" id="bq"/><path d="M657 26c-323 0-524-166-541-416h195c15 169 171 246 346 246 202 0 356-106 356-265 5-203-294-238-475-293-239-73-380-191-380-389 0-252 224-419 512-419 294 0 499 171 508 396H992c-17-145-151-228-328-228-193 0-321 102-321 242 0 156 175 211 284 241l149 41c160 44 422 134 422 412 0 244-197 432-541 432" id="br"/><g id="R"><use transform="matrix(0.010850694444444444,0,0,0.010850694444444444,0,0)" xlink:href="#bq"/><use transform="matrix(0.010850694444444444,0,0,0.010850694444444444,12.684461805555555,0)" xlink:href="#br"/><use transform="matrix(0.010850694444444444,0,0,0.010850694444444444,26.94227430555556,0)" xlink:href="#aA"/><use transform="matrix(0.010850694444444444,0,0,0.010850694444444444,43.93446180555556,0)" xlink:href="#aS"/><use transform="matrix(0.010850694444444444,0,0,0.010850694444444444,60.67708333333333,0)" xlink:href="#aM"/><use transform="matrix(0.010850694444444444,0,0,0.010850694444444444,73.79557291666667,0)" xlink:href="#aC"/><use transform="matrix(0.010850694444444444,0,0,0.010850694444444444,79.17751736111111,0)" xlink:href="#au"/><use transform="matrix(0.010850694444444444,0,0,0.010850694444444444,92.1332465277778,0)" xlink:href="#ay"/><use transform="matrix(0.010850694444444444,0,0,0.010850694444444444,97.51519097222221,0)" xlink:href="#aD"/></g><g id="S"><use transform="matrix(0.010850694444444444,0,0,0.010850694444444444,0,0)" xlink:href="#as"/><use transform="matrix(0.010850694444444444,0,0,0.010850694444444444,13.140190972222221,0)" xlink:href="#at"/><use transform="matrix(0.010850694444444444,0,0,0.010850694444444444,24.869791666666664,0)" xlink:href="#au"/><use transform="matrix(0.010850694444444444,0,0,0.010850694444444444,37.82552083333333,0)" xlink:href="#av"/><use transform="matrix(0.010850694444444444,0,0,0.010850694444444444,46.191406249999986,0)" xlink:href="#at"/><use transform="matrix(0.010850694444444444,0,0,0.010850694444444444,57.921006944444436,0)" xlink:href="#aw"/><use transform="matrix(0.010850694444444444,0,0,0.010850694444444444,68.05555555555554,0)" xlink:href="#as"/><use transform="matrix(0.010850694444444444,0,0,0.010850694444444444,81.19574652777777,0)" xlink:href="#at"/><use transform="matrix(0.010850694444444444,0,0,0.010850694444444444,92.92534722222221,0)" xlink:href="#au"/><use transform="matrix(0.010850694444444444,0,0,0.010850694444444444,105.88107638888889,0)" xlink:href="#av"/><use transform="matrix(0.010850694444444444,0,0,0.010850694444444444,114.24696180555556,0)" xlink:href="#aQ"/><use transform="matrix(0.010850694444444444,0,0,0.010850694444444444,126.72526041666666,0)" xlink:href="#aN"/><use transform="matrix(0.010850694444444444,0,0,0.010850694444444444,139.42057291666669,0)" xlink:href="#aI"/><use transform="matrix(0.010850694444444444,0,0,0.010850694444444444,146.69053819444446,0)" xlink:href="#aC"/><use transform="matrix(0.010850694444444444,0,0,0.010850694444444444,152.0724826388889,0)" xlink:href="#aX"/><use transform="matrix(0.010850694444444444,0,0,0.010850694444444444,164.56163194444446,0)" xlink:href="#aC"/><use transform="matrix(0.010850694444444444,0,0,0.010850694444444444,169.9435763888889,0)" xlink:href="#aI"/><use transform="matrix(0.010850694444444444,0,0,0.010850694444444444,177.64756944444446,0)" xlink:href="#aR"/><use transform="matrix(0.010850694444444444,0,0,0.010850694444444444,190.13671875,0)" xlink:href="#at"/><use transform="matrix(0.010850694444444444,0,0,0.010850694444444444,201.86631944444449,0)" xlink:href="#au"/><use transform="matrix(0.010850694444444444,0,0,0.010850694444444444,214.82204861111111,0)" xlink:href="#aN"/><use transform="matrix(0.010850694444444444,0,0,0.010850694444444444,227.51736111111111,0)" xlink:href="#aI"/><use transform="matrix(0.010850694444444444,0,0,0.010850694444444444,234.5703125,0)" xlink:href="#ax"/><use transform="matrix(0.010850694444444444,0,0,0.010850694444444444,247.89496527777777,0)" xlink:href="#av"/></g></defs></g></svg>